<svg xmlns="http://www.w3.org/2000/svg" version="1.1" xmlns:xlink="http://www.w3.org/1999/xlink" xmlns:svgjs="http://svgjs.com/svgjs" width="512" height="512" x="0" y="0" viewBox="0 0 512 512.00002" style="enable-background:new 0 0 512 512" xml:space="preserve" class=""><g transform="matrix(1,0,0,1,70,0)"><path xmlns="http://www.w3.org/2000/svg" d="m348.214844 298.132812c6.105468.183594 11.894531-3.558593 14.035156-9.628906 2.648438-7.515625-1.300781-15.75-8.816406-18.398437-6.246094-2.199219-12.933594-1.546875-18.832032 1.839843-8.894531 5.105469-14.457031 15.628907-16.023437 23.792969-2.25 11.734375 1.042969 22.699219 3.71875 29.925781.929687 2.519532 1.917969 4.933594 2.875 7.269532 1.789063 4.367187 3.476563 8.488281 4.421875 12.410156 1.921875 7.957031.605469 17.128906-3.609375 25.15625-2.523437 4.800781-6.199219 7.722656-11.289063 11.769531-3.109374 2.46875-6.632812 5.269531-10.121093 8.785157-5.613281 5.65625-5.578125 14.789062.078125 20.398437 2.8125 2.792969 6.488281 4.1875 10.160156 4.1875 3.710938 0 7.417969-1.421875 10.238281-4.261719 2.289063-2.308594 4.867188-4.355468 7.59375-6.523437 6.34375-5.039063 13.53125-10.753907 18.882813-20.941407 7.53125-14.347656 9.703125-30.449218 6.113281-45.335937-1.460937-6.050781-3.652344-11.402344-5.769531-16.574219-.90625-2.207031-1.757813-4.292968-2.519532-6.347656-2.34375-6.335938-3.121093-10.9375-2.441406-14.476562.160156-.828126.710938-2.0625 1.304688-3.046876zm0 0" fill="#efeec5" data-original="#efeec5" class=""></path><path xmlns="http://www.w3.org/2000/svg" d="m287.25 302.261719c2.101562 22.296875 15.320312 41.910156 29.539062 59.214843 14.21875 17.304688 30.101563 33.785157 39.351563 54.179688 9.25 20.398438 10.445313 46.359375-3.851563 63.597656-8.398437 10.128906-21.082031 15.972656-34.003906 18.441406s-26.214844 1.859376-39.34375 1.019532h-187.332031c-13.128906.839844-26.421875 1.449218-39.34375-1.019532s-25.605469-8.3125-34.003906-18.441406c-14.300781-17.238281-13.101563-43.199218-3.851563-63.597656 9.25-20.394531 25.132813-36.875 39.351563-54.179688 14.21875-17.304687 27.433593-36.917968 29.539062-59.214843l34.398438-77.636719h129.523437zm0 0" fill="#ccc39e" data-original="#ccc39e"></path><path xmlns="http://www.w3.org/2000/svg" d="m62.101562 499.019531c9.78125.820313 19.691407.324219 29.507813-.304687h-24.558594c-1.648437.105468-3.296875.210937-4.949219.304687zm0 0" fill="#ccae52" data-original="#ccae52"></path><path xmlns="http://www.w3.org/2000/svg" d="m356.140625 415.65625c-9.25-20.394531-25.136719-36.875-39.355469-54.179688-14.21875-17.304687-27.433594-36.917968-29.535156-59.214843l-40.027344-77.636719h-28.449218l39.027343 77.636719c2.050781 22.296875 14.9375 41.910156 28.800781 59.214843 13.863282 17.304688 29.351563 33.785157 38.371094 54.179688 9.015625 20.398438 10.183594 46.359375-3.757812 63.597656-8.1875 10.128906-20.554688 15.972656-33.15625 18.441406-2.480469.484376-4.976563.851563-7.484375 1.121094 12.597656.785156 25.320312 1.246094 37.707031-1.121094 12.921875-2.46875 25.609375-8.3125 34.007812-18.441406 14.296876-17.238281 13.097657-43.199218 3.851563-63.597656zm0 0" fill="#aaa179" data-original="#aaa179"></path><path xmlns="http://www.w3.org/2000/svg" d="m221.1875 498.714844v-134.304688c0-19.835937-16.078125-35.914062-35.914062-35.914062-19.832032 0-35.910157 16.078125-35.910157 35.914062v134.304688zm0 0" fill="#c47f6a" data-original="#c47f6a"></path><path xmlns="http://www.w3.org/2000/svg" d="m261.5 211.726562-40.3125 25.441407v256.527343h35.144531l41.496094-161.289062c11.902344-46.28125-3.351563-96.96875-36.328125-120.679688zm0 0" fill="#efeec5" data-original="#efeec5" class=""></path><path xmlns="http://www.w3.org/2000/svg" d="m109.050781 211.726562 40.3125 25.441407v256.527343h-35.144531l-41.496094-161.289062c-11.90625-46.28125 3.351563-96.96875 36.328125-120.679688zm0 0" fill="#efeec5" data-original="#efeec5" class=""></path><path xmlns="http://www.w3.org/2000/svg" d="m117.925781 459.203125c-22.800781 0-41.667969 16.847656-44.828125 38.773437-.5 3.453126 2.261719 6.523438 5.75 6.523438h78.160156c3.484376 0 6.246094-3.070312 5.75-6.523438-3.160156-21.925781-22.027343-38.773437-44.832031-38.773437zm0 0" fill="#ededed" data-original="#ededed"></path><path xmlns="http://www.w3.org/2000/svg" d="m162.757812 497.976562c-3.164062-21.925781-22.027343-38.773437-44.832031-38.773437-2.535156 0-5.019531.207031-7.441406.609375 13.851563 3.199219 24.738281 18.675781 26.75 38.164062.355469 3.453126-1.621094 6.523438-4.117187 6.523438h23.890624c3.484376 0 6.246094-3.070312 5.75-6.523438zm0 0" fill="#c9c9c9" data-original="#c9c9c9"></path><path xmlns="http://www.w3.org/2000/svg" d="m252.625 459.203125c-22.804688 0-41.671875 16.847656-44.832031 38.773437-.496094 3.453126 2.265625 6.523438 5.75 6.523438h78.160156c3.488281 0 6.25-3.070312 5.75-6.523438-3.160156-21.925781-22.027344-38.773437-44.828125-38.773437zm0 0" fill="#ededed" data-original="#ededed"></path><path xmlns="http://www.w3.org/2000/svg" d="m297.453125 497.976562c-3.160156-21.925781-22.027344-38.773437-44.828125-38.773437-2.738281 0-5.414062.242187-8.015625.707031 13.300781 3.410156 23.71875 18.773438 25.65625 38.066406.347656 3.453126-1.578125 6.523438-4.007813 6.523438h25.445313c3.484375 0 6.25-3.070312 5.75-6.523438zm0 0" fill="#c9c9c9" data-original="#c9c9c9"></path><path xmlns="http://www.w3.org/2000/svg" d="m313.46875 124.699219c21.640625-26.878907 26.09375-73.910157 26.808594-99.898438.28125-10.171875-8.492188-18.28125-18.613282-17.207031-25.851562 2.753906-72.390624 10.886719-97.484374 34.570312zm0 0" fill="#ffaf5c" data-original="#ffaf5c" class=""></path><path xmlns="http://www.w3.org/2000/svg" d="m313.46875 124.699219c21.640625-26.878907 26.09375-73.910157 26.808594-99.898438.058594-2.09375-.265625-4.097656-.90625-5.953125-12.300782 5.117188-23.871094 14.394532-32.617188 26.441406-11.679687 16.09375-17.878906 35.292969-19.738281 54.957032zm0 0" fill="#c47f6a" data-original="#c47f6a"></path><path xmlns="http://www.w3.org/2000/svg" d="m57.082031 124.699219c-21.640625-26.878907-26.097656-73.910157-26.808593-99.898438-.28125-10.171875 8.492187-18.28125 18.613281-17.207031 25.851562 2.753906 72.386719 10.886719 97.484375 34.570312zm0 0" fill="#efeec5" data-original="#efeec5" class=""></path><path xmlns="http://www.w3.org/2000/svg" d="m57.082031 124.699219c-21.640625-26.878907-26.097656-73.910157-26.808593-99.898438-.058594-2.09375.265624-4.097656.90625-5.953125 12.300781 5.117188 23.871093 14.394532 32.613281 26.441406 11.683593 16.09375 17.882812 35.292969 19.742187 54.957032zm0 0" fill="#c47f6a" data-original="#c47f6a"></path><path xmlns="http://www.w3.org/2000/svg" d="m185.273438 22.5625c-95.292969 0-135.054688 80.273438-135.054688 128.003906 0 47.730469 60.464844 107.148438 135.054688 107.148438 74.59375 0 135.058593-59.417969 135.058593-107.148438 0-47.730468-39.761719-128.003906-135.058593-128.003906zm0 0" fill="#efeec5" data-original="#efeec5" class=""></path><path xmlns="http://www.w3.org/2000/svg" d="m251.339844 38.277344c32.164062 27.703125 46.53125 68.15625 46.53125 96.847656 0 47.730469-60.46875 107.148438-135.058594 107.148438-26.328125 0-50.898438-7.402344-71.667969-19.082032 24.324219 20.214844 57.527344 34.523438 94.128907 34.523438 74.59375 0 135.058593-59.417969 135.058593-107.148438 0-34.671875-20.980469-86.515625-68.992187-112.289062zm0 0" fill="#ccc39e" data-original="#ccc39e"></path><path xmlns="http://www.w3.org/2000/svg" d="m215.390625 25.460938c-7.921875 12.90625-12.488281 28.09375-12.488281 44.351562 0 46.902344 38.023437 84.921875 84.925781 84.921875 11.503906 0 22.46875-2.285156 32.476563-6.429687-1.089844-42.46875-32.578126-108.328126-104.914063-122.84375zm0 0" fill="#ffaf5c" data-original="#ffaf5c" class=""></path><path xmlns="http://www.w3.org/2000/svg" d="m320.304688 148.304688c-1.015626-39.199219-24.539063-81.980469-60.648438-105.136719-2.753906-1.765625-5.507812-3.382813-8.3125-4.886719 32.160156 27.703125 46.527344 68.152344 46.527344 96.84375 0 6.292969-1.050782 12.792969-3.046875 19.328125 8.957031-.730469 17.523437-2.851563 25.480469-6.148437zm0 0" fill="#d67f3e" data-original="#d67f3e" class=""></path><path xmlns="http://www.w3.org/2000/svg" d="m207.734375 142.542969c0 8.585937-10.054687 20.96875-22.460937 20.96875-12.402344 0-22.460938-12.382813-22.460938-20.96875 0-8.589844 10.058594-10.132813 22.460938-10.132813 12.40625 0 22.460937 1.542969 22.460937 10.132813zm0 0" fill="#d67f3e" data-original="#d67f3e" class=""></path><path xmlns="http://www.w3.org/2000/svg" d="m353.253906 395.21875c1.835938-2.464844 3.460938-5.054688 4.914063-7.824219 8.382812-15.96875 10.785156-33.933593 6.757812-50.574219-1.582031-6.574218-3.859375-12.15625-6.066406-17.558593l-.046875-.121094c-.90625-2.195313-1.710938-4.171875-2.425781-6.105469-1.398438-3.765625-1.976563-6.339844-2.144531-8.113281 6.910156-1.800781 12.621093-6.917969 15.078124-13.929687 1.945313-5.523438 1.625-11.472657-.902343-16.757813-2.53125-5.28125-6.96875-9.261719-12.492188-11.203125-8.347656-2.941406-17.25-2.082031-25.046875 2.40625-11.707031 6.710938-17.910156 19.75-19.667968 28.886719-2.597657 13.550781 1.066406 25.863281 4.054687 33.949219.957031 2.582031 1.953125 5.027343 2.964844 7.480468l.101562.246094c1.632813 4.011719 3.175781 7.800781 3.976563 11.09375.738281 3.066406.851562 6.386719.367187 9.734375-.03125-.035156-.058593-.074219-.089843-.109375-7.433594-9.054688-12.925782-16.765625-17.097657-24.023438 2.699219-11.058593 3.992188-22.476562 3.851563-33.960937-.054688-4.144531-3.441406-7.425781-7.59375-7.40625-4.144532.050781-7.457032 3.453125-7.40625 7.59375.132812 10.710937-1.136719 21.351563-3.773438 31.617187l-24.054687 93.503907c-.03125.113281-.058594.222656-.085938.332031l-7.136719 27.753906c-2.1875-.28125-4.410156-.425781-6.664062-.425781-8.542969 0-16.699219 2.085937-23.9375 5.796875v-93.015625c0-.027344 0-.050781 0-.078125 0-.050781 0-.101562 0-.15625v-66.582031c0-4.144531-3.355469-7.5-7.5-7.5-4.140625 0-7.5 3.355469-7.5 7.5v33.941406c-7.617188-6.609375-17.554688-10.613281-28.410156-10.613281-10.851563 0-20.789063 4.003906-28.410156 10.613281v-33.941406c0-4.144531-3.355469-7.5-7.5-7.5-4.140626 0-7.5 3.355469-7.5 7.5v66.507812.230469.117188 92.980468c-7.234376-3.714844-15.394532-5.800781-23.9375-5.800781-2.25 0-4.472657.144531-6.660157.425781l-7.132812-27.730468c-.027344-.121094-.0625-.242188-.09375-.363282l-24.050781-93.496094c-8.503907-33.070312-2.390626-69.292968 15.519531-94.457031 24.476562 17.449219 55.6875 29.132813 89.765625 29.132813s65.289062-11.679688 89.761718-29.128906c7.085938 9.96875 12.484376 21.945312 15.753907 35.039062.851562 3.410156 3.910156 5.6875 7.269531 5.6875.605469 0 1.214844-.074219 1.824219-.226562 4.019531-1.003907 6.464843-5.078126 5.460937-9.09375-3.789062-15.164063-10.136718-29.085938-18.515625-40.703126 4.066407-3.539062 7.886719-7.242187 11.429688-11.070312 5.179687 3.757812 9.914062 8.140625 14.042969 13.050781 1.484374 1.761719 3.605468 2.671875 5.742187 2.671875 1.707031 0 3.417969-.578125 4.824219-1.761718 3.171875-2.664063 3.578125-7.394532.914062-10.566407-4.707031-5.597656-10.074218-10.613281-15.9375-14.957031 4.425782-5.992188 8.195313-12.179688 11.226563-18.441406 6.164062 2.128906 12.132812 4.898437 17.789062 8.28125 1.207031.71875 2.53125 1.0625 3.84375 1.0625 2.550781 0 5.039063-1.300782 6.445313-3.648438 2.125-3.558594.964844-8.160156-2.585938-10.289062-6.367187-3.808594-13.078125-6.941406-20.007812-9.375 2.148437-7.136719 3.277344-14.253906 3.277344-21.179688 0-.75-.007813-1.511718-.027344-2.28125 0-.058594 0-.117187-.003906-.171875-.210938-8.238281-1.453126-16.847656-3.605469-25.5 8.964843-13.925781 22.09375-43.367187 23.578125-97.582031 0-.003906 0-.011719 0-.019531.085937-2.984375-.359375-5.894531-1.332032-8.652344-.03125-.089844-.0625-.179687-.097656-.265625-1.3125-3.632812-3.480468-6.941406-6.382812-9.625-5.160156-4.765625-12.117188-7.074219-19.085938-6.328125-42.523437 4.519531-68.757812 14.917969-83.894531 23.527344-14.65625-5.28125-31.789063-8.605469-51.703125-8.605469s-37.046875 3.324219-51.703125 8.605469c-6.230469-3.550781-13.261719-6.785157-20.949219-9.640625-3.882812-1.445313-8.199218.535156-9.640625 4.417968-1.441406 3.882813.535157 8.199219 4.417969 9.640626 2.945312 1.09375 5.769531 2.246093 8.472656 3.445312-14.972656 8.015625-26.609375 17.96875-35.421875 27.542969-2.964843-6.480469-6.507812-12.566407-10.585937-18.191407-7.417969-10.226562-16.886719-18.78125-27.253906-24.734374 1.652343-.917969 3.535156-1.300782 5.480468-1.09375 10.035156 1.066406 19.816406 2.585937 29.070313 4.511718 4.058593.84375 8.027343-1.753906 8.875-5.808594.84375-4.058593-1.757813-8.027343-5.8125-8.875-9.742188-2.03125-20.019531-3.625-30.546875-4.746093-6.972656-.746094-13.929688 1.5625-19.089844 6.332031-2.902344 2.679688-5.074219 5.992188-6.382812 9.625-.03125.089844-.066407.175781-.097657.265625-.96875 2.757813-1.417969 5.667969-1.332031 8.640625 1.484375 54.28125 14.636719 83.738281 23.605469 97.648438-2.550781 10.3125-3.664063 19.875-3.664063 27.914062 0 6.925781 1.128906 14.042969 3.277344 21.179688-6.929688 2.433593-13.640625 5.570312-20.003906 9.378906-3.554688 2.125-4.714844 6.730468-2.585938 10.285156 1.402344 2.347656 3.890625 3.652344 6.441406 3.652344 1.3125 0 2.636719-.34375 3.84375-1.066406 5.65625-3.382813 11.625-6.148438 17.792969-8.277344 3.03125 6.261718 6.796875 12.449218 11.222657 18.441406-5.863282 4.339844-11.230469 9.359375-15.9375 14.957031-2.664063 3.171875-2.253907 7.902344.914062 10.566407 1.40625 1.183593 3.121094 1.761718 4.824219 1.761718 2.136719 0 4.261719-.910156 5.742187-2.675781 4.128906-4.90625 8.863282-9.289063 14.046875-13.046875 3.539063 3.828125 7.355469 7.53125 11.425781 11.070312-20.417968 28.324219-27.695312 68.851563-18.65625 105.90625-4.171874 7.257813-9.664062 14.96875-17.09375 24.019532-2.691406 3.273437-5.507812 6.59375-8.230468 9.804687-11.925782 14.0625-24.257813 28.597657-32.160156 46.042969-11.675782 25.753906-9.75 53.8125 4.910156 71.484375 8.699218 10.492187 22.328125 17.957031 38.355468 21.007813 5.34375 1.027343 11.101563 1.628906 17.496094 1.824218.132813.171875.273438.34375.417969.511719 2.539063 2.929687 6.214844 4.609375 10.085937 4.609375h78.160157c3.871093 0 7.546875-1.679688 10.085937-4.609375.328125-.378906.628906-.773437.910156-1.179687h34.542969c.28125.40625.585938.800781.914063 1.179687 2.535156 2.929687 6.210937 4.609375 10.082031 4.609375h78.160156c3.875 0 7.550781-1.679688 10.085938-4.609375.144531-.167969.285156-.335937.421875-.511719 6.390625-.195312 12.148437-.796875 17.480468-1.820312 16.042969-3.054688 29.667969-10.519532 38.371094-21.011719 14.65625-17.671875 16.582032-45.734375 4.90625-71.484375-2.769531-6.101562-6.074218-11.847656-9.71875-17.34375zm-134.082031-361.230469c55.226563 13.507813 89.300781 62.957031 93.332031 109.191407 0 .011718 0 .027343.003906.042968-7.921874 2.664063-16.199218 4.011719-24.679687 4.011719-42.691406 0-77.425781-34.730469-77.425781-77.421875 0-12.539062 3.019531-24.820312 8.769531-35.824219zm113.371094-3.097656c-.945313 19.910156-4.234375 49.234375-14.730469 72.1875-4.136719-10.230469-9.699219-20.699219-16.949219-30.777344 3.027344-8.238281 7.046875-15.832031 11.964844-22.613281 5.492187-7.574219 12.289063-14.019531 19.714844-18.796875zm-10.082031-15.835937c1.941406-.207032 3.824218.175781 5.476562 1.09375-10.367188 5.953124-19.835938 14.507812-27.253906 24.734374-4.082032 5.625-7.621094 11.710938-10.589844 18.191407-8.808594-9.574219-20.445312-19.527344-35.414062-27.539063 23.46875-10.429687 51.542968-14.753906 67.78125-16.480468zm-264.738282 34.636718c4.917969 6.777344 8.933594 14.371094 11.964844 22.609375-7.25 10.074219-12.8125 20.546875-16.949219 30.777344-.277343-.996094-12.433593-23.714844-14.730469-72.1875 7.425782 4.777344 14.222657 11.222656 19.714844 18.800781zm48.257813 144.015625c-.960938-4.027343-5.007813-6.515625-9.035157-5.554687-7.46875 1.78125-14.695312 4.496094-21.492187 8.03125-3.550781-4.679688-6.617187-9.46875-9.152344-14.285156 9.332031-1.617188 18.882813-1.835938 28.300781-.578126 4.101563.546876 7.875-2.335937 8.425782-6.441406.546875-4.105468-2.335938-7.878906-6.445313-8.425781-12.050781-1.609375-24.292969-1.136719-36.164062 1.296875-1.773438-5.84375-2.703125-11.617188-2.703125-17.1875 0-7.726562 1.183594-17.070312 3.917968-27.148438.046876-.148437.085938-.292968.121094-.445312 13.644532-49.570312 56.632813-92.910156 123.519532-92.910156 6.519531 0 12.707031.394531 18.570312 1.125-5.546875 12.050781-8.441406 25.21875-8.441406 38.625 0 50.964844 41.460937 92.425781 92.425781 92.425781 8.300781 0 16.445313-1.085937 24.328125-3.234375-.457031 2.886719-1.132812 5.808594-2.027344 8.75-11.871094-2.433594-24.113281-2.90625-36.164062-1.296875-4.105469.546875-6.992188 4.320313-6.441406 8.425781.546874 4.105469 4.316406 6.988282 8.425781 6.441406 9.414062-1.257812 18.96875-1.039062 28.300781.574219-2.539062 4.820313-5.605469 9.605469-9.15625 14.289063-6.796875-3.535156-14.023438-6.25-21.492188-8.03125-4.027343-.960938-8.070312 1.523437-9.035156 5.554687-.960937 4.03125 1.527344 8.074219 5.558594 9.035157 5.105469 1.21875 10.074219 2.957031 14.828125 5.160156-25.21875 25.753906-61.300781 42.308594-99.679687 42.308594-39 0-74.910157-17.011719-99.675782-42.308594 4.75-2.207032 9.722656-3.941406 14.828125-5.160156 4.027344-.960938 6.515625-5.003907 5.554688-9.035157zm219.960937 103.449219c1.207032-6.277344 5.601563-14.808594 12.40625-18.707031 4.019532-2.316407 8.375-2.753907 12.601563-1.265625 1.742187.613281 3.140625 1.867187 3.9375 3.535156s.902343 3.542969.28125 5.300781c-1 2.851563-3.699219 4.703125-6.71875 4.613281-2.742188-.089843-5.28125 1.316407-6.675781 3.65625-.660157 1.113282-1.832032 3.308594-2.222657 5.472657-.953125 4.957031-.070312 10.835937 2.769531 18.480469.796876 2.160156 1.65625 4.273437 2.613282 6.589843l.039062.101563c1.992188 4.882812 4.054688 9.933594 5.375 15.410156 3.167969 13.101562 1.230469 27.335938-5.464844 40.085938-.332031.632812-.675781 1.253906-1.035156 1.863281-3.132812-3.988281-6.367187-7.878907-9.605468-11.71875 3.738281-8.769531 4.710937-18.421875 2.644531-27-1.066407-4.394531-2.8125-8.6875-4.664063-13.230469l-.109375-.273438c-.972656-2.351562-1.914062-4.65625-2.78125-7-2.363281-6.398437-5.285156-16.042968-3.390625-25.914062zm-140.667968 38.839844c15.617187 0 28.328124 12.660156 28.410156 28.257812v104.6875c-5.707032 6.21875-9.960938 13.816406-12.164063 22.265625h-32.488281c-2.203125-8.449219-6.460938-16.046875-12.167969-22.265625v-104.765625c.125-15.558593 12.824219-28.179687 28.410157-28.179687zm-161.238282 138.476562c-13.386718-16.144531-9.871094-40.105468-2.789062-55.71875 7.035156-15.535156 18.15625-28.648437 29.933594-42.53125 2.761718-3.253906 5.613281-6.621094 8.382812-9.984375 4.007812-4.886719 7.507812-9.433593 10.578125-13.761719l14.289063 55.535157c-7.433594-3.804688-15.484376-6.285157-23.742188-7.242188-4.109375-.472656-7.835938 2.46875-8.3125 6.582031-.480469 4.117188 2.46875 7.839844 6.582031 8.316407 11.457031 1.328125 22.4375 6.414062 31.136719 14.375l6.71875 26.113281c-14.738281 6.496094-26.152344 19.558594-30.140625 35.648438-4.734375-.226563-9.027344-.71875-13.003906-1.484376-12.628907-2.402343-23.148438-8.03125-29.632813-15.847656zm115.964844 22.527344v-3.304688c0-4.140624-3.359375-7.5-7.5-7.5-4.144531 0-7.503906 3.359376-7.503906 7.5v3.304688h-17.253906v-3.304688c0-4.140624-3.359376-7.5-7.5-7.5-4.140626 0-7.5 3.359376-7.5 7.5v3.304688h-11.867188c3.511719-17.410156 19.082031-30.296875 37.050781-30.296875s33.542969 12.886719 37.054688 30.296875zm137.808594 0v-3.304688c0-4.140624-3.359375-7.5-7.5-7.5s-7.5 3.359376-7.5 7.5v3.304688h-17.257813v-3.304688c0-4.140624-3.355469-7.5-7.5-7.5-4.140625 0-7.5 3.359376-7.5 7.5v3.304688h-14.980469c3.511719-17.410156 19.085938-30.296875 37.054688-30.296875 17.964844 0 33.539062 12.886719 37.050781 30.296875zm68.703125-22.527344c-6.480469 7.816406-17.003907 13.445313-29.644531 15.851563-3.964844.765625-8.253907 1.253906-12.988282 1.480469-3.992187-16.085938-15.40625-29.152344-30.144531-35.648438l6.71875-26.113281c8.699219-7.960938 19.679687-13.042969 31.136719-14.375 4.113281-.476563 7.0625-4.199219 6.585937-8.3125-.480469-4.117188-4.203125-7.058594-8.316406-6.585938-8.257813.957031-16.308594 3.4375-23.738281 7.242188l14.285156-55.535157c3.070312 4.332032 6.570312 8.878907 10.585938 13.765626 2.761718 3.359374 5.613281 6.726562 8.375 9.980468.007812.011719.019531.019532.027343.03125.132813.171875.273438.339844.425781.5 6.289063 7.417969 12.378907 14.625 17.746094 22.113282.125.195312.261719.386718.40625.570312 4.367188 6.152344 8.242188 12.503906 11.332032 19.316406 7.082031 15.617188 10.597656 39.574219-2.792969 55.71875zm0 0" fill="#000000" data-original="#000000" class=""></path><path xmlns="http://www.w3.org/2000/svg" d="m120.675781 112.242188c4.140625 0 7.5-3.355469 7.5-7.5v-6.492188c0-4.144531-3.359375-7.5-7.5-7.5s-7.5 3.355469-7.5 7.5v6.492188c0 4.144531 3.359375 7.5 7.5 7.5zm0 0" fill="#000000" data-original="#000000" class=""></path><path xmlns="http://www.w3.org/2000/svg" d="m249.875 112.242188c4.140625 0 7.5-3.355469 7.5-7.5v-6.492188c0-4.144531-3.359375-7.5-7.5-7.5-4.144531 0-7.5 3.355469-7.5 7.5v6.492188c0 4.144531 3.355469 7.5 7.5 7.5zm0 0" fill="#000000" data-original="#000000" class=""></path><path xmlns="http://www.w3.org/2000/svg" d="m162.742188 205.582031c.433593 0 .851562-.003906 1.285156-.03125 8.324218-.324219 15.910156-3.863281 21.25-9.378906 5.335937 5.515625 12.925781 9.054687 21.25 9.378906.429687.023438.851562.03125 1.285156.03125 16.742188 0 30.363281-12.753906 30.363281-28.433593 0-4.140626-3.359375-7.5-7.5-7.5-4.144531 0-7.5 3.359374-7.5 7.5 0 7.40625-6.894531 13.433593-15.363281 13.433593-.121094 0-.242188.003907-.347656-.003906-.097656-.003906-.195313-.011719-.292969-.015625-7.011719-.242188-12.957031-4.671875-14.394531-10.625v-10c12.945312-3.726562 22.460937-16.515625 22.460937-27.398438 0-4.183593-1.5-11.738281-11.546875-15.34375-4.402344-1.582031-10.082031-2.285156-18.414062-2.285156-8.335938 0-14.015625.703125-18.417969 2.285156-10.042969 3.605469-11.542969 11.160157-11.542969 15.34375 0 10.882813 9.515625 23.671876 22.460938 27.398438v10c-1.4375 5.953125-7.386719 10.382812-14.394532 10.625-.101562.003906-.183593.007812-.28125.015625-.121093.007813-.238281.003906-.359374.003906-8.472657 0-15.363282-6.027343-15.363282-13.433593 0-4.140626-3.359375-7.5-7.5-7.5s-7.5 3.359374-7.5 7.5c0 15.679687 13.621094 28.433593 30.363282 28.433593zm7.570312-63.042969c0-.253906.027344-.386718.023438-.394531.257812-.296875 2.429687-2.234375 14.9375-2.234375 12.773437 0 14.769531 2.019532 14.917968 2.183594 0 0 .042969.125.042969.445312 0 4.550782-6.773437 13.46875-14.960937 13.46875s-14.960938-8.917968-14.960938-13.46875zm0 0" fill="#000000" data-original="#000000" class=""></path></g></svg>