<svg xmlns="http://www.w3.org/2000/svg" version="1.1" xmlns:xlink="http://www.w3.org/1999/xlink" xmlns:svgjs="http://svgjs.com/svgjs" width="512" height="512" x="0" y="0" viewBox="0 0 512.002 512.002" style="enable-background:new 0 0 512 512" xml:space="preserve" class="">
    <g>
        <path xmlns="http://www.w3.org/2000/svg" style="" d="M503.676,326.125c-3.402,28.342-17.016,55.122-52.223,67.474  c-91.88,32.234-40.587-123.783-40.587-123.783s18.15-15.925,30.352-42.662c4.428-9.7,8.075-20.834,9.775-33.133  c1.016-7.347,10.534-9.626,14.695-3.487c7.947,11.732,15.957,28.78,13.668,47.838c1.551-1.326,3.412-1.946,5.23-1.946  c3.305,0,6.513,2.021,7.69,5.519C498.082,259.153,507.58,293.665,503.676,326.125z" fill="#a59590" data-original="#a59590"></path>
        <path xmlns="http://www.w3.org/2000/svg" style="" d="M503.676,326.125c-3.402,28.342-17.016,55.122-52.223,67.474  c-91.88,32.234-40.587-123.783-40.587-123.783s18.15-15.925,30.352-42.662C466.029,245.004,490.082,280.201,503.676,326.125z" fill="#87776f" data-original="#87776f"></path>
        <path xmlns="http://www.w3.org/2000/svg" style="" d="M112.315,142.995c-0.011,0-0.011,0-0.011,0c-7.851,9.797-19.529,18.855-36.897,24.385  c-55.09,17.55-84.662-26.106-57.934-34.47c14.353-4.492,35.604-22.448,52.191-38.128c14.31-13.509,25.176-25.326,25.176-25.326  L128.357,96.9C128.358,96.899,129.363,121.712,112.315,142.995z" fill="#ff9300" data-original="#ff9300"></path>
        <path xmlns="http://www.w3.org/2000/svg" style="" d="M112.315,142.995c-0.011,0-0.011,0-0.011,0l-1.027-0.77c-6.705-4.995-13.636-10.16-20-15.7  c-12.32-10.738-18.695-21.7-21.614-31.742c14.311-13.509,25.177-25.326,25.177-25.326L128.357,96.9  C128.358,96.899,129.363,121.712,112.315,142.995z" fill="#ff7400" data-original="#ff7400"></path>
        <path xmlns="http://www.w3.org/2000/svg" style="" d="M499.023,406.129c0,89.688-92.228,77.855-279.275,77.855c-187.037,0-113.482-158.971-68.564-238.117  s-13.903-100.53-49.36-131.436C84.831,99.619,82.221,84.916,84.111,73.614c1.78-10.622,8.062-19.894,16.793-26.185  c36.667-26.385,76.795-30.246,114.983,11.532c30.236,33.097,7.652,142.918,34.287,202.65c0.98,2.18,2.02,4.301,3.131,6.341  c9.452,17.403,24.045,29.496,46.829,32.446c19.094,2.49,35.197,1.45,48.72-1.85c11.562-2.801,21.254-7.261,29.356-12.562  c21.594-14.143,31.876-34.327,36.207-45.539c1.76-4.601,7.241-6.601,11.492-4.131C461.656,257.05,499.023,323.313,499.023,406.129z" fill="#cebab3" data-original="#cebab3"></path>
        <path xmlns="http://www.w3.org/2000/svg" style="" d="M431.339,324.133l-2.931,16.383c-10.442,58.311-60.952,100.64-120.104,100.64  c-7.211,0-14.493-0.65-21.644-1.93l-35.997-6.451c-45.319-8.112-75.585-51.58-67.473-96.889  c6.421-35.857,35.007-62.872,70.114-67.933c9.452,17.403,24.045,29.496,46.829,32.446c19.094,2.49,35.197,1.45,48.72-1.85  c11.562-2.801,21.254-7.261,29.356-12.562l30.346,5.431C423.857,294.158,434.08,308.83,431.339,324.133z" fill="#a59590" data-original="#a59590"></path>
        <path xmlns="http://www.w3.org/2000/svg" style="" d="M289.306,424.454l-36.001-6.445c-37.231-6.665-62.009-42.25-55.344-79.482l0,0  c6.665-37.231,42.25-62.009,79.482-55.344l128.471,23c7.171,1.284,11.943,8.138,10.66,15.309l-2.934,16.386  C403.212,396.119,347.546,434.881,289.306,424.454z" fill="#f9e8d4" data-original="#f9e8d4"></path>
        <path xmlns="http://www.w3.org/2000/svg" d="M499.384,239.549c-1.658-4.919-5.634-8.679-10.635-10.058c-0.512-0.142-1.028-0.256-1.546-0.343  c-0.706-17.465-8.375-32.58-15.311-42.817c-3.643-5.376-10.08-7.897-16.398-6.425c-6.354,1.48-11.038,6.617-11.934,13.087  c-1.772,12.792-5.954,25.445-12.444,37.697c-0.482-0.293-0.963-0.585-1.446-0.865c-3.909-2.265-8.604-2.701-12.884-1.191  c-4.314,1.521-7.731,4.842-9.373,9.108c-5.587,14.513-19.916,40.497-53.104,51.462c-0.074,0.024-0.142,0.057-0.214,0.083  L278.761,275.8c-4.008-0.717-8.023-1.098-12.017-1.178c-7.241-8.798-12.642-20.723-16.481-36.422  c-0.984-4.025-5.051-6.491-9.068-5.504c-4.024,0.984-6.489,5.044-5.505,9.069c3.369,13.777,7.915,25.161,13.786,34.496  c-9.755,2.085-19.093,6.108-27.524,11.979c-16.656,11.598-27.799,28.989-31.376,48.968s0.841,40.155,12.439,56.811  c11.598,16.656,28.988,27.798,48.968,31.376l15.774,2.824c4.075,0.729,7.976-1.983,8.706-6.062c0.729-4.079-1.983-7.977-6.063-8.707  l-15.774-2.824c-16.033-2.871-29.99-11.813-39.299-25.181c-9.308-13.368-12.854-29.56-9.982-45.594  c2.871-16.034,11.813-29.991,25.181-39.3c13.369-9.308,29.556-12.854,45.595-9.983l128.47,23c1.496,0.268,2.799,1.102,3.667,2.349  c0.868,1.247,1.199,2.758,0.931,4.254l-2.934,16.386c-1.914,10.693-5.462,20.695-10.344,29.789l-104.101-18.637  c-4.074-0.725-7.976,1.984-8.706,6.062c-0.729,4.079,1.983,7.977,6.063,8.707l97.9,17.526c-5.404,7.008-11.703,13.235-18.706,18.537  l-46.354-8.299c-4.072-0.729-7.976,1.984-8.706,6.062c-0.729,4.079,1.983,7.977,6.063,8.707l29.138,5.216  c-14.512,6.399-30.751,9.4-47.617,8.143c-4.139-0.307-7.731,2.791-8.041,6.92c-0.309,4.132,2.79,7.732,6.921,8.041  c2.849,0.213,5.693,0.319,8.531,0.319c25.184,0,49.721-8.329,69.887-23.868c10.477-8.074,19.364-17.795,26.388-28.699  c1.684-1.089,2.934-2.843,3.316-4.973c0.04-0.221,0.064-0.44,0.084-0.659c6.306-11.152,10.751-23.381,13.056-36.25l2.934-16.385  c0.974-5.44-0.229-10.935-3.387-15.471c-3.159-4.536-7.895-7.57-13.336-8.545l-27.442-4.913  c24.555-14.94,36.386-37.151,41.623-50.755c0.065-0.17,0.188-0.287,0.362-0.349c0.204-0.072,0.314-0.008,0.368,0.023  c26.426,15.319,54.455,58.132,65.015,115.399c0.036,0.301,0.094,0.598,0.165,0.892c1.962,10.859,3.299,22.231,3.876,34.032  c0.196,4.014,3.512,7.135,7.486,7.135c0.123,0,0.247-0.003,0.372-0.009c4.138-0.202,7.328-3.721,7.126-7.859  c-0.562-11.498-1.828-22.875-3.767-34.014C521.89,317.15,506.878,261.755,499.384,239.549z M443.308,239.675  c7.918-14.408,13.003-29.397,15.113-44.625c0.027-0.194,0.061-0.436,0.478-0.533c0.361-0.084,0.455,0.054,0.573,0.228  c6.81,10.052,14.496,25.624,12.44,42.73c-0.369,3.069,1.182,6.049,3.907,7.508c2.723,1.458,6.064,1.097,8.415-0.911  c0.076-0.065,0.232-0.2,0.526-0.119c0.305,0.084,0.377,0.298,0.408,0.391c5.553,16.456,15.654,52.595,10.483,84.98  c-4.054-13.828-9.185-27.083-15.366-39.487C469.827,268.853,457.027,251.572,443.308,239.675z" fill="#000000" data-original="#000000"></path>
        <path xmlns="http://www.w3.org/2000/svg" d="M498.869,416.629c-4.088-0.725-7.971,2.003-8.691,6.083c-4.618,26.161-21.646,40.403-56.938,47.62  c-35.718,7.305-88.314,6.917-154.903,6.423c-18.63-0.138-37.892-0.28-58.588-0.28c-53.664,0-88.702-13.445-104.142-39.96  c-21.507-36.937-7.343-99.834,42.097-186.944c18.041-31.787,21.835-58.138,11.599-80.56c-8.922-19.543-26.734-32.82-43.962-45.662  c-6.64-4.95-12.913-9.626-18.592-14.576C94.638,98.217,89.51,86.803,91.509,74.85c1.399-8.369,6.292-15.944,13.777-21.332  c38.744-27.892,73.111-24.452,105.063,10.508c13.912,15.222,15.279,52.323,16.727,91.604c0.657,17.835,1.337,36.276,3.23,53.897  c0.442,4.119,4.129,7.099,8.26,6.657c4.119-0.442,7.1-4.141,6.657-8.26c-1.836-17.097-2.507-35.272-3.154-52.847  c-1.552-42.11-3.019-81.886-20.646-101.172C184.466,13.469,141.275,9.124,96.521,41.341c-10.718,7.716-17.753,18.737-19.81,31.034  c-0.294,1.761-0.501,3.656-0.582,5.656c-26.483,26.515-48.637,43.888-60.894,47.722c-7.985,2.498-13.237,7.72-14.788,14.702  c-1.802,8.109,1.917,17.331,9.948,24.672c8.289,7.576,22.181,13.847,40.137,13.846c8.243,0,17.344-1.322,27.15-4.446  c20.179-6.428,35.463-17.859,45.556-34.003c30.352,23.007,53.238,45.579,21.419,101.642c-21.238,37.42-35.796,69.724-44.505,98.759  c-12.987,43.298-12.148,77.998,2.489,103.139c18.319,31.462,57.72,47.414,117.107,47.414c20.64,0,39.875,0.142,58.477,0.28  c16.081,0.119,31.349,0.232,45.793,0.232c46.16,0,83.849-1.155,112.227-6.959c20.159-4.123,35.31-10.537,46.317-19.608  c12.056-9.935,19.38-23.054,22.389-40.104C505.671,421.241,502.949,417.35,498.869,416.629z M73.128,160.233  c-25.069,7.987-43.614,2.044-52.611-6.179c-4.435-4.054-5.92-8.116-5.425-10.344c0.433-1.946,2.753-3.053,4.622-3.638  c16.519-5.168,40.088-25.263,59.45-43.978c2.96,7.653,8.393,15.852,17.727,23.99c4.508,3.93,9.391,7.719,14.282,11.403  C102.99,145.119,90.222,154.787,73.128,160.233z" fill="#000000" data-original="#000000"></path>
        <path xmlns="http://www.w3.org/2000/svg" d="M130.974,66.176c-4.144,0-7.501,3.359-7.501,7.501c0,4.143,3.358,7.501,7.501,7.501h0.882c4.144,0,7.501-3.359,7.501-7.501  c0-4.143-3.358-7.501-7.501-7.501H130.974z" fill="#000000" data-original="#000000"></path>
        <path xmlns="http://www.w3.org/2000/svg" d="M71.138,110.121l-3.391,3.346c-2.949,2.91-2.981,7.66-0.071,10.608c1.468,1.487,3.404,2.232,5.34,2.232  c1.903,0,3.808-0.72,5.269-2.162l3.391-3.346c2.949-2.91,2.981-7.66,0.071-10.608C78.835,107.24,74.085,107.211,71.138,110.121z" fill="#000000" data-original="#000000"></path>
        <g xmlns="http://www.w3.org/2000/svg"></g>
        <g xmlns="http://www.w3.org/2000/svg"></g>
        <g xmlns="http://www.w3.org/2000/svg"></g>
        <g xmlns="http://www.w3.org/2000/svg"></g>
        <g xmlns="http://www.w3.org/2000/svg"></g>
        <g xmlns="http://www.w3.org/2000/svg"></g>
        <g xmlns="http://www.w3.org/2000/svg"></g>
        <g xmlns="http://www.w3.org/2000/svg"></g>
        <g xmlns="http://www.w3.org/2000/svg"></g>
        <g xmlns="http://www.w3.org/2000/svg"></g>
        <g xmlns="http://www.w3.org/2000/svg"></g>
        <g xmlns="http://www.w3.org/2000/svg"></g>
        <g xmlns="http://www.w3.org/2000/svg"></g>
        <g xmlns="http://www.w3.org/2000/svg"></g>
        <g xmlns="http://www.w3.org/2000/svg"></g>
    </g>
</svg>