<svg xmlns="http://www.w3.org/2000/svg" version="1.1" xmlns:xlink="http://www.w3.org/1999/xlink" xmlns:svgjs="http://svgjs.com/svgjs" width="512" height="512" x="0" y="0" viewBox="0 0 512 512" style="enable-background:new 0 0 512 512" xml:space="preserve" class="">
    <g>
        <path xmlns="http://www.w3.org/2000/svg" d="m443.761 413.27v38.235c0 29.269-84.061 52.995-187.761 52.995-35.494 0-68.688-2.781-96.993-7.611-54.401-9.277-90.768-26.136-90.768-45.384v-38.235z" fill="#f1d333" data-original="#f1d333"></path>
        <path xmlns="http://www.w3.org/2000/svg" d="m159.007 413.27v83.619c-54.401-9.277-90.768-26.136-90.768-45.384v-38.235z" fill="#e7a52e" data-original="#e7a52e"></path>
        <path xmlns="http://www.w3.org/2000/svg" d="m430.799 393.882c8.364 6.004 12.963 12.551 12.963 19.389 0 29.269-84.061 52.995-187.761 52.995s-187.762-23.727-187.762-52.996c0-6.838 4.599-13.384 12.963-19.389" fill="#e7a52e" data-original="#e7a52e"></path>
        <path xmlns="http://www.w3.org/2000/svg" d="m430.799 261.907v133.963c0 27.251-78.257 49.34-174.799 49.34-36.287 0-69.994-3.123-97.927-8.465-46.388-8.866-76.872-23.867-76.872-40.876v-133.962z" fill="#da4a54" data-original="#da4a54"></path>
        <path xmlns="http://www.w3.org/2000/svg" d="m158.073 261.907v174.839c-46.388-8.866-76.872-23.867-76.872-40.876v-133.963z" fill="#c32430" data-original="#c32430"></path>
        <path xmlns="http://www.w3.org/2000/svg" d="m443.761 204.273v38.235c0 29.269-84.061 52.995-187.761 52.995-35.494 0-68.688-2.781-96.993-7.611-54.401-9.278-90.768-26.136-90.768-45.384v-38.235z" fill="#f1d333" data-original="#f1d333"></path>
        <path xmlns="http://www.w3.org/2000/svg" d="m159.007 204.273v83.619c-54.401-9.278-90.768-26.136-90.768-45.384v-38.235z" fill="#e7a52e" data-original="#e7a52e"></path>
        <ellipse xmlns="http://www.w3.org/2000/svg" cx="256" cy="204.275" fill="#efe7e4" rx="187.765" ry="52.993" data-original="#efe7e4"></ellipse>
        <path xmlns="http://www.w3.org/2000/svg" d="m443.761 204.276c0 4.338-1.848 8.545-5.312 12.581-20.011-23.194-94.102-40.414-182.45-40.414s-162.439 17.22-182.45 40.414c-3.464-4.036-5.312-8.243-5.312-12.581 0-29.269 84.061-52.995 187.761-52.995s187.763 23.727 187.763 52.995z" fill="#e7a52e" data-original="#e7a52e"></path>
        <path xmlns="http://www.w3.org/2000/svg" d="m18.163 11.369c-5.154 5.154-5.154 13.511 0 18.665l180.406 180.406 18.665-18.665-180.406-180.406c-5.154-5.154-13.511-5.154-18.665 0z" fill="#be694f" data-original="#be694f"></path>
        <path xmlns="http://www.w3.org/2000/svg" d="m23.656 8.078c-1.374 4.508-.27 9.605 3.294 13.169l180.407 180.407-8.787 8.787-180.407-180.407c-5.156-5.156-5.156-13.514 0-18.67 1.584-1.584 3.48-2.688 5.493-3.286z" fill="#934d36" data-original="#934d36"></path>
        <circle xmlns="http://www.w3.org/2000/svg" cx="212.637" cy="205.842" fill="#da4a54" r="32.121" data-original="#da4a54"></circle>
        <path xmlns="http://www.w3.org/2000/svg" d="m242.042 218.765c-1.55 3.555-3.783 6.883-6.69 9.79-12.545 12.545-32.883 12.545-45.428 0s-12.545-32.883 0-45.428c2.907-2.907 6.234-5.139 9.79-6.689-5.19 11.761-2.957 26.008 6.681 35.646s23.885 11.871 35.647 6.681z" fill="#c32430" data-original="#c32430"></path>
        <path xmlns="http://www.w3.org/2000/svg" d="m493.838 11.369c-5.154-5.154-13.511-5.154-18.665 0l-180.405 180.405 18.665 18.665 180.405-180.405c5.154-5.155 5.154-13.511 0-18.665z" fill="#be694f" data-original="#be694f"></path>
        <path xmlns="http://www.w3.org/2000/svg" d="m497.129 16.862c-4.508-1.374-9.605-.27-13.169 3.294l-180.406 180.407-8.787-8.787 180.406-180.407c5.156-5.156 13.514-5.156 18.67 0 1.584 1.584 2.688 3.479 3.286 5.493z" fill="#934d36" data-original="#934d36"></path>
        <circle xmlns="http://www.w3.org/2000/svg" cx="299.365" cy="205.842" fill="#da4a54" r="32.121" data-original="#da4a54"></circle>
        <path xmlns="http://www.w3.org/2000/svg" d="m286.442 235.247c-3.555-1.55-6.883-3.783-9.79-6.69-12.545-12.545-12.545-32.883 0-45.428s32.883-12.545 45.428 0c2.907 2.907 5.139 6.234 6.689 9.79-11.761-5.19-26.008-2.957-35.646 6.681-9.638 9.639-11.871 23.886-6.681 35.647z" fill="#c32430" data-original="#c32430"></path>
        <path xmlns="http://www.w3.org/2000/svg" d="m505.205 20.69c-.003-5.527-2.159-10.722-6.063-14.617-3.905-3.914-9.101-6.07-14.628-6.073-.003 0-.007 0-.01 0-5.528 0-10.727 2.155-14.64 6.067l-141.735 141.736c-22.912-2.661-47.147-4.025-72.129-4.025s-49.217 1.364-72.129 4.025l-141.736-141.736c-3.913-3.913-9.112-6.067-14.64-6.067-.003 0-.007 0-.01 0-5.527.003-10.723 2.159-14.617 6.062-3.914 3.906-6.07 9.101-6.073 14.628-.002 5.532 2.152 10.734 6.067 14.649l120.986 120.986c-7.608 1.794-14.741 3.755-21.306 5.865-3.943 1.268-6.112 5.492-4.846 9.435 1.022 3.181 3.968 5.208 7.139 5.208.761 0 1.534-.117 2.297-.361 8.735-2.807 18.579-5.346 29.296-7.566l8.268 8.268c-44.358 7.828-67.223 18.873-78.928 27.597-.011-.166-.03-.333-.03-.498 0-5.118 5.371-11.047 15.125-16.693 3.585-2.075 4.809-6.664 2.733-10.249-2.076-3.584-6.663-4.809-10.249-2.733-14.986 8.676-22.59 18.646-22.608 29.637 0 .016-.006.023-.006.04v38.236c0 8.282 4.403 16.012 12.967 23.034v124.651c-8.596 7.038-12.963 14.786-12.963 23.075v38.235c0 18.074 20.905 33.528 60.456 44.691 36.109 10.191 83.984 15.803 134.807 15.803 49.478 0 96.44-5.364 132.237-15.104 3.997-1.087 6.355-5.209 5.269-9.206-1.088-3.997-5.214-6.355-9.206-5.268-34.55 9.401-80.114 14.578-128.3 14.578-111.685 0-180.262-26.498-180.262-45.495v-13.612c10.172 7.646 25.409 14.41 45.456 20.068 36.107 10.191 83.982 15.804 134.806 15.804s98.698-5.613 134.806-15.804c20.041-5.656 35.284-12.416 45.456-20.059v13.603c0 6.686-8.963 14.513-24.59 21.474-3.783 1.686-5.484 6.119-3.8 9.903 1.244 2.792 3.984 4.45 6.855 4.45 1.02 0 2.057-.209 3.048-.651 22.22-9.897 33.486-21.732 33.486-35.176v-38.235c0-8.289-4.366-16.037-12.963-23.075v-124.651c8.563-7.021 12.967-14.751 12.967-23.034v-38.236c0-.015-.005-.021-.005-.035-.036-25.618-41.117-40.334-73.115-47.909l120.992-120.99c3.916-3.916 6.07-9.118 6.068-14.65zm-249.205 138.088c20.11 0 39.707.905 58.484 2.67l-5.862 5.862c-2.997-.714-6.097-1.089-9.256-1.089-5.546 0-10.913 1.142-15.847 3.296-18.172-.756-36.912-.755-55.083.002-7.92-3.433-16.736-4.168-25.038-2.191l-5.88-5.88c18.775-1.765 38.372-2.67 58.482-2.67zm60.774 64.474c-9.6 9.6-25.219 9.6-34.818 0-9.601-9.6-9.601-25.22 0-34.819 4.65-4.65 10.833-7.211 17.409-7.211s12.759 2.561 17.409 7.211c9.601 9.599 9.601 25.219 0 34.819zm-121.546-34.819c4.8-4.8 11.104-7.2 17.409-7.2s12.609 2.4 17.409 7.2c9.601 9.6 9.601 25.22 0 34.819-9.6 9.6-25.219 9.6-34.818 0-9.601-9.6-9.601-25.22 0-34.819zm-173.433-167.736c.001-1.518.594-2.944 1.68-4.028 1.073-1.075 2.5-1.667 4.018-1.668h.003c1.521 0 2.953.595 4.032 1.674l157.416 157.415c-1.507 1.126-2.955 2.367-4.324 3.736-1.368 1.368-2.609 2.816-3.735 4.322l-157.416-157.416c-1.08-1.08-1.675-2.513-1.674-4.035zm152.328 175.903c-3.086 12.954.41 27.171 10.497 37.259 7.725 7.724 17.87 11.586 28.017 11.586s20.292-3.862 28.017-11.586c13.518-13.518 15.207-34.454 5.067-49.825 6.844-.107 13.713-.107 20.556 0-4.248 6.417-6.532 13.937-6.532 21.81 0 10.583 4.121 20.533 11.604 28.016 7.725 7.724 17.87 11.586 28.017 11.586s20.292-3.862 28.017-11.586c7.483-7.483 11.604-17.433 11.604-28.016 0-3.161-.375-6.262-1.09-9.261l6.351-6.351c38.682 5.925 68.697 15.588 83.185 26.609-22.543 17.063-85.013 32.927-171.433 32.927-86.436 0-148.913-15.87-171.435-32.926 14.487-11.022 44.503-20.686 83.188-26.611zm81.877 91.404c-111.687 0-180.266-26.497-180.266-45.493v-13.573c29.028 21.709 98.631 35.829 180.266 35.829 81.625 0 151.223-14.117 180.266-35.834v13.577c0 18.997-68.579 45.494-180.266 45.494zm-125.913 13.169 54.555 132.207c-18.474-2.371-35.463-5.678-50.206-9.839-31.78-8.97-44.253-19.539-45.605-26.428zm12.626-8.724c29.724 6.235 64.975 9.859 102.186 10.462l-48.533 119.558zm113.287 22.995 48.834 120.299c-15.643 1.294-32.047 1.966-48.834 1.966s-33.191-.672-48.834-1.966zm11.101-12.533c37.211-.603 72.461-4.227 102.186-10.462l-53.653 130.019zm114.812-1.738 41.265 95.958c-1.79 10.462-25.331 20.684-45.613 26.409-14.743 4.162-31.733 7.468-50.206 9.839zm-261.987-14.34-31.225 72.611v-84.396c8.53 4.314 18.961 8.259 31.225 11.785zm136.074 171.932c-111.685 0-180.262-26.498-180.262-45.495 0-1.742.62-3.455 1.603-5.087 7.247 11.793 25.219 21.946 53.02 29.793 33.659 9.5 78.278 14.733 125.64 14.733s91.98-5.232 125.64-14.733c27.801-7.848 45.772-18 53.02-29.793.982 1.632 1.603 3.345 1.603 5.086-.002 18.998-68.579 45.496-180.264 45.496zm167.299-99.321-31.225-72.611c12.264-3.526 22.695-7.471 31.225-11.785zm12.963-155.171c0 .164-.019.332-.03.498-11.705-8.724-34.57-19.769-78.928-27.597l8.267-8.267c48.783 10.099 70.691 24.924 70.691 35.366zm52.268-179.54-157.409 157.409c-1.134-1.512-2.379-2.956-3.739-4.316-1.361-1.361-2.806-2.608-4.32-3.743l157.411-157.41c1.079-1.08 2.511-1.674 4.032-1.674h.003c1.518.001 2.944.593 4.028 1.679 1.075 1.073 1.668 2.5 1.669 4.018.001 1.523-.594 2.956-1.675 4.037z" fill="#000000" data-original="#000000"></path>
        <path xmlns="http://www.w3.org/2000/svg" d="m256 109.877c4.143 0 7.5-3.358 7.5-7.5v-77.2c0-4.142-3.357-7.5-7.5-7.5s-7.5 3.358-7.5 7.5v77.2c0 4.143 3.357 7.5 7.5 7.5z" fill="#000000" data-original="#000000"></path>
        <path xmlns="http://www.w3.org/2000/svg" d="m207.521 115.876c1.378 2.443 3.921 3.816 6.539 3.816 1.248 0 2.514-.313 3.678-.969 3.608-2.035 4.883-6.609 2.848-10.217l-28.786-51.03c-2.034-3.608-6.609-4.881-10.217-2.847-3.608 2.035-4.883 6.609-2.848 10.217z" fill="#000000" data-original="#000000"></path>
        <path xmlns="http://www.w3.org/2000/svg" d="m294.262 118.723c1.164.657 2.43.969 3.678.969 2.618 0 5.161-1.374 6.539-3.816l28.786-51.03c2.035-3.608.761-8.182-2.848-10.217-3.604-2.036-8.181-.76-10.217 2.847l-28.786 51.03c-2.035 3.608-.761 8.182 2.848 10.217z" fill="#000000" data-original="#000000"></path>
    </g>
</svg>