<svg xmlns="http://www.w3.org/2000/svg" version="1.1" xmlns:xlink="http://www.w3.org/1999/xlink" xmlns:svgjs="http://svgjs.com/svgjs" width="512" height="512" x="0" y="0" viewBox="0 0 512.007 512.007" style="enable-background:new 0 0 512 512" xml:space="preserve" class="">
    <g>
        <g xmlns="http://www.w3.org/2000/svg">
            <g>
                <path d="m497.606 295.777h-488.268v-58.287c0-6.855 5.557-12.411 12.411-12.411h463.446c6.855 0 12.411 5.557 12.411 12.411z" fill="#678d98" data-original="#678d98"></path>
                <path d="m497.611 237.487v58.29h-26.04v-58.29c0-6.85-5.56-12.41-12.41-12.41h26.03c6.86 0 12.42 5.56 12.42 12.41z" fill="#537983" data-original="#537983"></path>
                <path d="m497.606 295.777h-488.268v47.96c0 6.855 5.557 12.411 12.411 12.411h463.446c6.855 0 12.411-5.557 12.411-12.411z" fill="#7ca1b1" data-original="#7ca1b1" class=""></path>
                <path d="m497.611 295.777v47.96c0 6.85-5.56 12.41-12.42 12.41h-26.03c6.85 0 12.41-5.56 12.41-12.41v-47.96z" fill="#678d98" data-original="#678d98"></path>
                <path d="m42.848 295.777h421.248v29.123h-421.248z" fill="#fff6ce" data-original="#fff6ce"></path>
                <g>
                    <path d="m41.765 356.148-21.327 130.821c-1.499 9.192 5.597 17.538 14.911 17.538 6.606 0 12.446-4.292 14.418-10.597l33.079-105.745h18.997c8.153 0 15.046-6.039 16.118-14.122l2.373-17.895z" fill="#678d98" data-original="#678d98"></path>
                    <path d="m95.297 356.148-2.373 17.895c-1.072 8.083-7.965 14.122-16.118 14.122h-10.685c-4.946 0-9.317 3.213-10.794 7.933l-30.597 97.812c-.446 1.426-1.098 2.741-1.904 3.935 2.694 3.987 7.251 6.662 12.522 6.662 6.606 0 12.446-4.292 14.418-10.597l33.079-105.745h18.997c8.153 0 15.046-6.039 16.118-14.122l2.373-17.895z" fill="#537983" data-original="#537983"></path>
                    <path d="m465.18 356.148 21.326 130.821c1.499 9.192-5.597 17.538-14.911 17.538-6.606 0-12.446-4.292-14.418-10.597l-33.078-105.745h-18.997c-8.153 0-15.046-6.039-16.118-14.122l-2.373-17.895z" fill="#678d98" data-original="#678d98"></path>
                    <path d="m486.506 486.969-21.326-130.821h-25.037l21.326 130.821c.65 3.99-.322 7.818-2.388 10.876 2.757 4.085 7.402 6.662 12.514 6.662 9.314 0 16.41-8.345 14.911-17.538z" fill="#537983" data-original="#537983"></path>
                </g>
                <path d="m301.03 385.118h-95.116c-11.303 0-20.467-9.163-20.467-20.467v-19.285c0-11.303 9.163-20.467 20.467-20.467h95.116c11.303 0 20.467 9.163 20.467 20.467v19.285c0 11.304-9.164 20.467-20.467 20.467z" fill="#fe646f" data-original="#fe646f"></path>
                <path d="m301.03 324.9h-25.004c11.303 0 20.467 9.163 20.467 20.467v19.285c0 11.303-9.163 20.467-20.467 20.467h25.004c11.303 0 20.467-9.163 20.467-20.467v-19.285c-.001-11.304-9.164-20.467-20.467-20.467z" fill="#fd4755" data-original="#fd4755"></path>
                <g>
                    <path d="m253.472 295.777h-77.094c-7.261 0-13.146-5.886-13.146-13.146v-76.57c0-7.261 5.886-13.146 13.146-13.146h47.745c16.209 0 29.349 13.14 29.349 29.349z" fill="#ffe177" data-original="#ffe177"></path>
                    <path d="m224.123 192.915h-25.037c16.209 0 29.349 13.14 29.349 29.349v73.514h25.037v-73.514c0-16.209-13.14-29.349-29.349-29.349z" fill="#ffd15b" data-original="#ffd15b"></path>
                    <path d="m253.472 295.777h77.094c7.26 0 13.146-5.886 13.146-13.146v-76.57c0-7.261-5.886-13.146-13.146-13.146h-47.745c-16.209 0-29.349 13.14-29.349 29.349z" fill="#ffe177" data-original="#ffe177"></path>
                    <path d="m330.566 192.915h-25.037c7.26 0 13.146 5.886 13.146 13.146v76.57c0 7.26-5.886 13.146-13.146 13.146h25.037c7.26 0 13.146-5.886 13.146-13.146v-76.57c0-7.26-5.886-13.146-13.146-13.146z" fill="#ffd15b" data-original="#ffd15b"></path>
                </g>
                <g>
                    <path d="m488.51 225.07c-1.937 0-3.906-.394-5.792-1.228l-427.32-188.863c-7.247-3.203-10.525-11.674-7.322-18.921 3.203-7.246 11.672-10.527 18.92-7.322l427.32 188.862c14.112 5.697 9.096 28.011-5.806 27.472z" fill="#7ca1b1" data-original="#7ca1b1" class=""></path>
                </g>
            </g>
            <g>
                <path d="m509.643 215.169c2.239-10.511-2.854-20.554-12.394-24.474l-427.22-188.818c-5.339-2.36-11.273-2.499-16.719-.393-5.44 2.106-9.735 6.205-12.096 11.543-4.867 11.018.136 23.943 11.152 28.812l22.397 9.899-34.032 165.84h-18.98c-10.979 0-19.91 8.932-19.91 19.91v106.25c0 10.979 8.932 19.91 19.91 19.91h11.192l-19.907 122.114c-1.069 6.556.785 13.219 5.088 18.281 4.304 5.062 10.581 7.964 17.225 7.964 9.938 0 18.609-6.373 21.577-15.858l31.433-100.484h13.484c11.867 0 21.992-8.871 23.553-20.636l1.509-11.382h51.042c-.649 15.187 12.245 29.037 27.967 28.971h40.058v65.94h-42.294c-12.581 0-22.816 10.236-22.816 22.817v23.132c0 4.142 3.357 7.5 7.5 7.5s7.5-3.358 7.5-7.5v-23.132c0-4.31 3.507-7.817 7.816-7.817h42.294v30.949c0 4.142 3.357 7.5 7.5 7.5s7.5-3.358 7.5-7.5v-30.949h42.295c4.31 0 7.816 3.507 7.816 7.817v23.132c0 4.142 3.357 7.5 7.5 7.5s7.5-3.358 7.5-7.5v-23.132c0-12.581-10.235-22.817-22.816-22.817h-42.295v-73.44c0-4.142-3.357-7.5-7.5-7.5h-47.558c-7.15 0-12.967-5.817-12.967-12.966v-19.285c0-7.149 5.816-12.966 12.967-12.966h95.116c7.149 0 12.966 5.817 12.966 12.966v19.285c0 7.149-5.816 12.966-12.966 12.966h-12.446c-4.143 0-7.5 3.358-7.5 7.5s3.357 7.5 7.5 7.5h12.446c15.318.071 28.478-13.174 27.966-28.971h51.043l1.509 11.382c1.561 11.764 11.686 20.635 23.553 20.635h13.484l31.433 100.485c2.968 9.485 11.639 15.857 21.577 15.857 6.644 0 12.921-2.903 17.225-7.964 4.303-5.062 6.157-11.725 5.088-18.28l-19.907-122.115h11.19c10.983 0 19.92-8.932 19.92-19.91v-106.25c0-3.609-.98-6.987-2.667-9.909 3.53-3.049 6.116-7.328 7.199-12.409zm-399.117 157.888c-.576 4.337-4.309 7.608-8.684 7.608h-18.996c-3.279 0-6.179 2.131-7.158 5.261l-33.078 105.744c-.998 3.192-3.916 5.337-7.261 5.337-2.269 0-4.326-.952-5.796-2.68-1.469-1.728-2.077-3.913-1.712-6.151l20.3-124.527h63.633zm366.866 121.27c-1.47 1.729-3.527 2.68-5.796 2.68-3.345 0-6.263-2.145-7.261-5.336l-33.078-105.745c-.979-3.13-3.879-5.261-7.158-5.261h-18.997c-4.375 0-8.107-3.271-8.684-7.607l-1.247-9.409h63.633l20.3 124.528c.365 2.238-.244 4.422-1.712 6.15zm12.719-206.05h-139.703c.512-1.797.804-3.687.804-5.646v-50.054h133.979c2.713 0 4.92 2.203 4.92 4.91zm-88.723 29.123v-14.123h20.104v14.123zm-35.104 0v-14.123h20.104v14.123zm-35.104 0v-14.123h20.104v14.123zm-175.52 0v-14.123h20.104v14.123zm-35.104 0v-14.123h20.104v14.123zm-35.104 0v-14.123h20.104v14.123zm-35.104 0v-14.123h20.104v14.123zm126.03-29.123c-3.113 0-5.646-2.533-5.646-5.646v-76.57c0-3.113 2.532-5.646 5.646-5.646h47.745c12.048 0 21.849 9.801 21.849 21.849v66.014h-69.594zm69.594 15v14.123h-20.104v-14.123zm15 0h20.104v14.123h-20.104zm0-15v-66.014c0-12.047 9.801-21.849 21.849-21.849h47.745c3.113 0 5.646 2.533 5.646 5.646v76.57c0 3.113-2.533 5.646-5.646 5.646h-69.594zm175.52 15h20.104v14.123h-20.104zm-381.557-284.186c.74-1.673 2.086-2.958 3.791-3.618.802-.311 1.638-.465 2.472-.465.941 0 1.88.197 2.767.589l427.32 188.862c.074.033.149.064.225.095 4.322 1.745 3.743 6.174 3.463 7.49-.199.937-1.412 5.536-5.942 5.536-.082 0-.165-.001-.248-.004-.091-.003-.181-.005-.271-.005-.949 0-1.877-.197-2.759-.588l-427.323-188.864c-3.452-1.526-5.021-5.577-3.495-9.028zm-38.094 218.396c0-2.708 2.203-4.91 4.91-4.91h106.316c4.143 0 7.5-3.358 7.5-7.5s-3.357-7.5-7.5-7.5h-72.024l32.759-159.635 361.191 159.635h-98.781v-11.516c0-11.384-9.262-20.646-20.646-20.646h-47.746c-11.966 0-22.613 5.736-29.349 14.599-6.736-8.863-17.383-14.599-29.349-14.599h-47.745c-11.384 0-20.646 9.262-20.646 20.646v76.57c0 1.959.292 3.849.804 5.646h-139.694zm4.91 111.16c-2.707 0-4.91-2.203-4.91-4.91v-40.46h18.507v21.623c0 4.142 3.357 7.5 7.5 7.5h138.299c-2.008 3.626-3.568 10.302-3.199 16.247zm169.013-31.247v-14.123h20.104v14.123zm105.312 0v-14.123h20.104v14.123zm194.035 26.337c0 2.708-2.207 4.91-4.92 4.91h-156.195c.255-4.68-.461-10.91-3.199-16.247h138.299c4.143 0 7.5-3.358 7.5-7.5v-21.623h18.516v40.46z" fill="#000000" data-original="#000000" class=""></path>
                <path d="m310.594 224.41h-20.643c-4.143 0-7.5 3.358-7.5 7.5s3.357 7.5 7.5 7.5h20.643c4.143 0 7.5-3.358 7.5-7.5s-3.358-7.5-7.5-7.5z" fill="#000000" data-original="#000000" class=""></path>
                <path d="m227.174 231.91c0-4.142-3.357-7.5-7.5-7.5h-20.644c-4.143 0-7.5 3.358-7.5 7.5s3.357 7.5 7.5 7.5h20.644c4.143 0 7.5-3.358 7.5-7.5z" fill="#000000" data-original="#000000" class=""></path>
            </g>
        </g>
    </g>
</svg>