<svg xmlns="http://www.w3.org/2000/svg" version="1.1" xmlns:xlink="http://www.w3.org/1999/xlink" xmlns:svgjs="http://svgjs.com/svgjs" width="512" height="512" x="0" y="0" viewBox="0 0 511.988 511.988" style="enable-background:new 0 0 512 512" xml:space="preserve" class="">
    <g>
        <g xmlns="http://www.w3.org/2000/svg">
            <g>
                <g>
                    <path d="m162.62 188.651c6.313 27.748 4.55 56.759-5.415 84.136l-28.725 78.923c-4.707 12.931 1.961 27.229 14.892 31.936 12.931 4.706 27.228-1.96 31.936-14.891l100.439-275.905c13.544-36.057 50.752-57.587 88.824-51.252l87.79 14.611-3.42 30.391s-50.585-6.531-67.493-8.302c-22.951-2.404-55.913-8.518-75.913 67.372l-85.151 259.748c-19.001 52.206-77.07 79.131-129.236 59.805-51.952-19.247-78.029-77.46-59.08-129.522l19.748-54.258c5.433-14.927 4.728-31.075-1.986-45.472z" fill="#fee265" data-original="#fee265" class=""></path>
                </g>
                <g fill="#f8c52d">
                    <path d="m448.936 86.602s-50.58-6.527-67.492-8.301c-22.952-2.407-55.906-8.518-75.911 67.369l-85.152 259.75c-19.001 52.205-77.073 79.132-129.232 59.803-4.476-1.661-8.765-3.607-12.841-5.822 47.921 9.847 97.249-16.704 114.473-64.027l89.176-270.805c22.502-61.822 52.968-69.773 75.911-67.369 16.912 1.774 67.492 8.301 67.492 8.301l1.523-13.529 25.479 4.235z" fill="#f8c52d" data-original="#f8c52d"></path>
                    <path d="m131.213 374.124c-4.902 1.429-10.281 1.36-15.439-.518-12.934-4.708-19.602-19.006-14.894-31.94l28.725-78.92c7.558-20.764 10.396-42.464 8.576-63.834l24.442-10.258c6.313 27.743 4.546 56.759-5.419 84.138l-28.725 78.92c-2.829 7.774-1.551 16.043 2.734 22.412z" fill="#f8c52d" data-original="#f8c52d"></path>
                </g>
                <path d="m49.833 235.975c3.557 7.627 5.428 15.757 5.592 23.933l110.309-51.438c-.594-6.653-1.629-13.268-3.115-19.818z" fill="#f8c52d" data-original="#f8c52d"></path>
                <g>
                    <path d="m309.221 133.041c-1.271 3.937-2.502 8.135-3.686 12.629l-6.982 21.297-43.963-16.001 12.154-33.386z" fill="#f8c52d" data-original="#f8c52d"></path>
                </g>
                <path d="m313.727 119.376-40.406-14.706c-7.455-2.713-15.699 1.13-18.412 8.586-2.713 7.455 1.13 15.699 8.586 18.412l40.406 14.706c7.455 2.713 15.699-1.13 18.412-8.586 2.713-7.455-1.131-15.698-8.586-18.412z" fill="#fca62f" data-original="#fca62f"></path>
                <path d="m322.312 137.789c1.358-3.731 1.074-7.652-.478-10.982-1.553-3.33-4.374-6.068-8.105-7.426l-21.897-7.97c3.731 1.358 6.562 4.099 8.115 7.429s1.836 7.251.478 10.982c-2.713 7.453-10.955 11.296-18.417 8.58l21.897 7.97c7.452 2.713 15.694-1.13 18.407-8.583z" fill="#f98824" data-original="#f98824"></path>
                <g>
                    <g>
                        <path d="m177.013 152.633c-3.837-1.397-8.207-1.33-12.201.532l-148.101 69.06c-7.987 3.724-11.442 13.219-7.718 21.205 3.724 7.987 13.218 11.443 21.204 7.719l148.101-69.06c7.987-3.724 11.442-13.219 7.718-21.205-1.861-3.994-5.165-6.855-9.003-8.251z" fill="#fca62f" data-original="#fca62f"></path>
                    </g>
                    <g>
                        <path d="m186.023 160.88c-1.867-3.986-5.175-6.849-9.007-8.244-3.841-1.398-8.207-1.328-12.199.526l-24.527 11.437c3.996-1.863 8.361-1.933 12.203-.535 3.841 1.398 7.141 4.258 9.004 8.253 3.717 7.988.264 17.476-7.718 21.206l24.527-11.437c7.977-3.72 11.434-13.218 7.717-21.206z" fill="#f98824" data-original="#f98824"></path>
                    </g>
                </g>
                <g>
                    <circle cx="283.223" cy="211.296" fill="#fca62f" r="18.583" data-original="#fca62f"></circle>
                    <path d="m265.765 204.94c-3.509 9.642 1.455 20.305 11.106 23.818 4.029 1.466 8.222 1.458 12.003.242-6.992-3.126-10.49-11.181-7.827-18.497s10.52-11.239 17.891-9.126c-2.115-3.362-5.327-6.077-9.356-7.543-9.65-3.513-20.307 1.464-23.817 11.106z" fill="#f98824" data-original="#f98824"></path>
                </g>
                <g>
                    <circle cx="265.124" cy="268.692" fill="#fca62f" r="18.583" data-original="#fca62f"></circle>
                    <path d="m247.666 262.336c-3.509 9.642 1.455 20.305 11.106 23.818 4.029 1.466 8.222 1.458 12.003.242-6.992-3.126-10.49-11.181-7.827-18.497s10.52-11.239 17.891-9.126c-2.115-3.362-5.327-6.077-9.356-7.543-9.65-3.514-20.307 1.463-23.817 11.106z" fill="#f98824" data-original="#f98824"></path>
                </g>
                <g>
                    <circle cx="247.025" cy="326.087" fill="#fca62f" r="18.583" data-original="#fca62f"></circle>
                    <path d="m229.567 319.731c-3.509 9.642 1.455 20.305 11.106 23.818 4.029 1.466 8.222 1.458 12.003.242-6.992-3.126-10.49-11.181-7.827-18.497s10.52-11.239 17.891-9.126c-2.115-3.362-5.327-6.077-9.356-7.543-9.651-3.513-20.307 1.464-23.817 11.106z" fill="#f98824" data-original="#f98824"></path>
                </g>
                <g>
                    <circle cx="35.726" cy="357.566" fill="#fca62f" r="18.583" data-original="#fca62f"></circle>
                    <path d="m18.268 351.21c-3.509 9.642 1.455 20.305 11.106 23.818 4.029 1.466 8.222 1.458 12.003.242-6.992-3.126-10.49-11.181-7.827-18.497s10.52-11.239 17.891-9.126c-2.115-3.362-5.327-6.077-9.356-7.543-9.65-3.513-20.307 1.464-23.817 11.106z" fill="#f98824" data-original="#f98824"></path>
                </g>
                <g>
                    <circle cx="58.309" cy="295.519" fill="#fca62f" r="18.583" data-original="#fca62f"></circle>
                    <path d="m40.852 289.163c-3.509 9.642 1.455 20.305 11.106 23.818 4.029 1.466 8.222 1.458 12.003.242-6.992-3.126-10.49-11.181-7.827-18.497s10.52-11.239 17.891-9.126c-2.115-3.362-5.327-6.077-9.356-7.543-9.651-3.514-20.308 1.464-23.817 11.106z" fill="#f98824" data-original="#f98824"></path>
                </g>
                <path d="m398.817 77.35 22.819-26.533c2.639-3.068 6.724-4.48 10.695-3.696l63.385 12.522c6.21 1.227 10.067 7.474 8.382 13.576-1.455 5.269-6.587 8.644-11.999 7.88-10.919-1.541-29.165-2.062-42.059 8.197-2.332 1.855-5.353 2.612-8.31 2.24l-39.356-4.95c-4.443-.559-6.477-5.84-3.557-9.236z" fill="#47666b" data-original="#47666b" class=""></path>
                <path d="m504.095 73.222c-1.31 4.77-5.64 7.99-10.48 7.99-.5 0-1.01-.04-1.52-.11-10.91-1.54-29.16-2.07-42.05 8.19-2.34 1.86-5.36 2.62-8.31 2.24l-39.36-4.95c-4.44-.56-6.48-5.84-3.56-9.23l5.9-6.85 29.77 3.74c2.95.37 5.98-.39 8.31-2.24 12.89-10.26 31.14-9.74 42.06-8.2.51.07 1.02.11 1.52.11 3.48 0 6.7-1.67 8.71-4.39l.63.12c6.21 1.23 10.07 7.47 8.38 13.58z" fill="#3f5959" data-original="#3f5959" class=""></path>
            </g>
            <path d="m509.25 60.663c-2.678-4.337-7.081-7.39-12.08-8.377l-63.386-12.522c-5.207-1.032-10.546.226-14.728 3.299l-53.255-8.863c-11.266-1.875-22.619-1.559-33.75.939-4.042.907-6.583 4.919-5.676 8.96.907 4.042 4.916 6.584 8.96 5.677 9.234-2.072 18.656-2.335 28.003-.779l43.714 7.275-13.62 15.836c-4.713-.557-8.481-.984-11.204-1.269l-2.174-.233c-19.527-2.113-48.691-5.269-69.914 39.484l-28.863-10.505 1.491-4.097c4.572-12.173 12.337-22.937 22.455-31.127 3.22-2.606 3.717-7.329 1.11-10.548-2.606-3.22-7.329-3.716-10.548-1.11-12.191 9.869-21.548 22.84-27.085 37.582l-2.228 6.12c-2.497.224-4.965.857-7.305 1.948-5.293 2.469-9.309 6.851-11.306 12.339-2.992 8.218-.725 17.087 5.068 22.915l-5.147 14.139-6.698-2.438.309-.848c1.417-3.893-.59-8.196-4.483-9.613-3.892-1.415-8.197.591-9.613 4.482l-5.748 15.793c-1.417 3.893.59 8.196 4.483 9.613.847.308 1.713.454 2.564.454 3.063 0 5.94-1.892 7.048-4.937l.309-.849 6.697 2.438-8.585 23.583-6.696-2.437.309-.848c1.417-3.893-.59-8.196-4.482-9.613-3.893-1.415-8.196.591-9.613 4.482l-5.749 15.793c-1.417 3.893.59 8.196 4.482 9.613.847.308 1.713.454 2.565.454 3.063 0 5.939-1.892 7.048-4.937l.309-.849 6.695 2.437-8.585 23.583-6.694-2.436.309-.849c1.417-3.893-.59-8.196-4.483-9.613-3.894-1.415-8.196.592-9.613 4.482l-5.748 15.794c-1.417 3.893.59 8.196 4.483 9.613.847.308 1.713.454 2.564.454 3.063 0 5.94-1.892 7.048-4.937l.309-.849 6.693 2.436-14.466 39.739-6.691-2.435.309-.849c1.417-3.893-.59-8.196-4.483-9.613-3.893-1.414-8.196.591-9.613 4.482l-5.748 15.794c-1.417 3.893.59 8.196 4.483 9.613.847.308 1.713.454 2.564.454 3.063 0 5.94-1.892 7.048-4.937l.309-.849 6.689 2.435-8.585 23.583-6.688-2.434.309-.848c1.417-3.893-.59-8.196-4.482-9.613-3.894-1.414-8.196.591-9.613 4.482l-5.749 15.793c-1.417 3.893.59 8.196 4.482 9.613.847.308 1.713.454 2.565.454 3.063 0 5.939-1.892 7.048-4.937l.309-.849 6.687 2.434-13.64 37.481c-3.285 9.023-13.297 13.694-22.323 10.408-9.024-3.285-13.694-13.299-10.41-22.322l28.726-78.924c9.584-26.332 11.982-54.486 7.026-81.716l10.188-4.751c5.679-2.647 9.986-7.349 12.129-13.236 2.143-5.889 1.865-12.258-.783-17.936-2.648-5.679-7.349-9.986-13.236-12.129-5.888-2.144-12.258-1.865-17.936.783l-46.589 21.725c-3.754 1.75-5.378 6.213-3.628 9.967 1.75 3.753 6.212 5.378 9.967 3.627l46.589-21.725c2.047-.954 4.343-1.053 6.465-.282 2.123.773 3.817 2.326 4.772 4.374.955 2.047 1.055 4.343.282 6.465-.773 2.123-2.326 3.817-4.373 4.772l-148.1 69.06c-2.048.955-4.344 1.056-6.466.283-2.124-.773-3.819-2.327-4.773-4.374-1.971-4.226-.136-9.267 4.09-11.238l67.952-31.686c3.754-1.75 5.378-6.212 3.628-9.967-1.751-3.754-6.213-5.38-9.967-3.627l-67.952 31.686c-11.718 5.467-16.808 19.451-11.341 31.174 2.648 5.677 7.349 9.983 13.236 12.128 2.618.952 5.331 1.427 8.036 1.427 3.378 0 6.745-.739 9.899-2.21l13.669-6.374c1.282 6.808 1.176 13.795-.327 20.611-6.023 2.99-10.603 8.074-12.911 14.415-2.463 6.767-1.939 13.905.894 19.963l-9.672 26.574c-.093.255-.174.512-.265.768-.018.008-.036.015-.054.023-6.314 2.944-11.104 8.172-13.487 14.719-2.383 6.548-2.073 13.631.871 19.944 1.57 3.368 3.806 6.284 6.53 8.651 2.601 43.024 29.831 80.162 69.926 95.016 12.099 4.482 24.583 6.736 37.252 6.736 4.092 0 8.205-.235 12.329-.707 4.116-.47 7.071-4.188 6.601-8.303-.47-4.116-4.192-7.073-8.303-6.6-14.533 1.66-28.887-.088-42.667-5.193-32.22-11.937-54.785-40.637-59.451-74.589.48.027.96.063 1.44.063 3.757 0 7.5-.822 11.007-2.457 6.314-2.944 11.104-8.172 13.487-14.719 2.383-6.548 2.073-13.631-.871-19.944-2.944-6.315-8.172-11.104-14.718-13.487-1.083-.394-2.181-.707-3.287-.954l4.898-13.457c1.001.521 2.042.989 3.13 1.385 2.935 1.068 5.938 1.574 8.894 1.574 10.657-.001 20.687-6.585 24.537-17.164 2.383-6.547 2.074-13.63-.871-19.944-2.944-6.314-8.171-11.104-14.718-13.486-1.599-.582-3.23-1-4.874-1.262 1.087-8.237.624-16.583-1.386-24.673l96.198-44.857c3.579 23.395 1.205 47.434-7.011 70.005l-28.726 78.924c-6.113 16.796 2.578 35.435 19.375 41.549 3.647 1.327 7.38 1.956 11.054 1.956 13.245 0 25.708-8.182 30.494-21.329l13.66-37.523c.61.155 1.225.233 1.833.233 3.063 0 5.94-1.892 7.048-4.937 1.328-3.65-.353-7.661-3.777-9.315l8.613-23.659c.609.154 1.223.232 1.831.232 3.063 0 5.94-1.892 7.048-4.937 1.328-3.649-.353-7.66-3.776-9.315l14.494-39.815c.608.154 1.221.231 1.827.231 3.063 0 5.94-1.892 7.048-4.937 1.328-3.648-.352-7.657-3.773-9.313l8.613-23.661c.607.153 1.219.231 1.825.231 3.063 0 5.94-1.892 7.048-4.937 1.327-3.647-.351-7.655-3.77-9.312l8.613-23.661c.607.153 1.218.23 1.823.23 3.063 0 5.94-1.892 7.048-4.937 1.327-3.647-.351-7.654-3.768-9.311l4.454-12.235 29.448 10.718-11.096 33.848c-4.244-.241-8.509.567-12.47 2.414-6.314 2.944-11.104 8.172-13.487 14.719v.001c-2.382 6.547-2.073 13.63.871 19.943 2.089 4.482 5.345 8.173 9.39 10.803l-3.112 9.492c-4.009-.117-8.02.694-11.761 2.438-6.314 2.944-11.104 8.172-13.487 14.719-4.137 11.369.156 23.785 9.668 30.37l-3.233 9.862c-10.657.001-20.684 6.584-24.534 17.163-2.383 6.547-2.074 13.63.871 19.944 1.885 4.042 4.714 7.449 8.217 10.01l-18.307 55.843c-7.934 21.714-23.602 39.59-44.126 50.343-3.669 1.923-5.085 6.455-3.163 10.124 1.34 2.559 3.949 4.021 6.65 4.021 1.173 0 2.363-.276 3.474-.858 23.879-12.511 42.099-33.326 51.302-58.61.027-.076.054-.152.079-.229l18.236-55.627c.431.021.863.057 1.294.057 3.757 0 7.5-.822 11.007-2.457 6.314-2.944 11.104-8.172 13.487-14.719 4.203-11.546-.295-24.17-10.121-30.671l3.142-9.584c.18.004.362.023.542.023 10.657 0 20.686-6.584 24.537-17.163 2.383-6.548 2.073-13.631-.871-19.944-1.964-4.212-4.96-7.723-8.669-10.316l3.271-9.978c10.594-.069 20.538-6.634 24.368-17.157 2.383-6.548 2.073-13.631-.871-19.944-1.861-3.993-4.64-7.37-8.083-9.92l11.694-35.672c2.592-.198 5.154-.858 7.581-1.99 5.293-2.468 9.309-6.85 11.306-12.338 3.111-8.547.536-17.799-5.78-23.6 16.66-35.367 36.911-33.179 54.859-31.235l2.227.238c2.609.273 6.215.682 10.732 1.214 1.961 3.848 5.695 6.51 10.041 7.056l39.355 4.95c.792.1 1.586.148 2.376.148 4.205 0 8.311-1.392 11.54-3.961 10.931-8.695 27.462-7.891 36.34-6.641 9.109 1.297 17.827-4.435 20.277-13.309 1.357-4.909.6-10.214-2.078-14.55zm-463.479 292.219c1.251 2.683 1.382 5.693.37 8.475s-3.048 5.004-5.731 6.255-5.693 1.381-8.475.369c-2.782-1.013-5.003-3.048-6.254-5.73-1.251-2.683-1.382-5.693-.37-8.475s3.048-5.004 5.731-6.255c1.49-.694 3.08-1.044 4.676-1.044 1.279 0 2.561.225 3.798.675 2.783 1.012 5.003 3.047 6.255 5.73zm22.583-62.047c1.251 2.683 1.382 5.692.37 8.474-2.09 5.744-8.461 8.716-14.205 6.625-5.743-2.09-8.714-8.463-6.624-14.205 1.012-2.782 3.048-5.004 5.731-6.255 1.49-.694 3.08-1.044 4.676-1.044 1.279 0 2.561.225 3.798.675 2.782 1.012 5.002 3.046 6.254 5.73zm189.085 39.042c-1.012 2.782-3.048 5.004-5.731 6.255-2.683 1.25-5.693 1.381-8.475.369-2.782-1.013-5.003-3.048-6.254-5.73-1.251-2.683-1.382-5.692-.37-8.474 1.636-4.497 5.897-7.294 10.426-7.294 1.255 0 2.533.215 3.779.669 5.744 2.09 8.716 8.463 6.625 14.205zm18.099-57.395c-2.09 5.742-8.465 8.715-14.205 6.624-5.743-2.09-8.715-8.463-6.625-14.205 1.012-2.782 3.048-5.004 5.731-6.255 1.49-.694 3.08-1.044 4.676-1.044 1.186 0 2.373.202 3.527.589.002.001.003.001.005.002.001 0 .003 0 .004.001.087.029.176.051.263.083 2.782 1.013 5.003 3.048 6.254 5.73 1.252 2.683 1.383 5.694.37 8.475zm18.1-57.395c-2.09 5.743-8.464 8.719-14.206 6.624-2.782-1.013-5.003-3.048-6.254-5.73s-1.383-5.693-.37-8.476c1.013-2.781 3.048-5.003 5.731-6.254 2.683-1.25 5.693-1.381 8.475-.369 2.782 1.013 5.003 3.048 6.254 5.73 1.251 2.683 1.382 5.694.37 8.475zm21.626-79.864c-.627 1.724-1.888 3.1-3.55 3.875-1.662.773-3.525.856-5.25.229l-40.406-14.706c-3.557-1.295-5.398-5.242-4.103-8.8.627-1.723 1.888-3.099 3.549-3.874 1.662-.773 3.526-.856 5.25-.229l40.405 14.706c3.56 1.295 5.4 5.242 4.105 8.799zm181.605-64.001c-.451 1.633-2.044 2.696-3.722 2.45-24.93-3.519-39.741 3.364-47.777 9.756-.694.553-1.68.799-2.703.667l-35.877-4.513 20.533-23.874c.875-1.019 2.238-1.485 3.555-1.229l63.386 12.522c1.26.249 1.934 1.073 2.223 1.542.289.47.724 1.441.382 2.679z" fill="#000000" data-original="#000000" class=""></path>
        </g>
    </g>
</svg>