<svg xmlns="http://www.w3.org/2000/svg" version="1.1" xmlns:xlink="http://www.w3.org/1999/xlink" xmlns:svgjs="http://svgjs.com/svgjs" width="512" height="512" x="0" y="0" viewBox="0 0 512 512" style="enable-background:new 0 0 512 512" xml:space="preserve" class="">
    <g transform="matrix(6.123233995736766e-17,1,1,-6.123233995736766e-17,0,0)">
        <g xmlns="http://www.w3.org/2000/svg">
            <g>
                <path d="m496.465 504.5h-480.929c-4.438 0-8.036-3.598-8.036-8.036v-480.928c0-4.438 3.598-8.036 8.036-8.036h480.929c4.438 0 8.036 3.598 8.036 8.036v480.929c0 4.438-3.598 8.035-8.036 8.035z" fill="#e81224" data-original="#ffab56" class=""></path>
                <path d="m496.465 7.5h-35c4.438 0 8.036 3.598 8.036 8.036v480.929c0 4.438-3.598 8.036-8.036 8.036h35c4.438 0 8.036-3.598 8.036-8.036v-480.929c0-4.438-3.598-8.036-8.036-8.036z" fill="#e81224" data-original="#ff982a" class=""></path>
            </g>
            <g>
                <path d="m504.5 458.523c-4.143 0-7.5 3.357-7.5 7.5v30.977h-482v-482h36.883c4.143 0 7.5-3.358 7.5-7.5s-3.357-7.5-7.5-7.5h-44.383c-4.142 0-7.5 3.358-7.5 7.5v497c0 4.143 3.357 7.5 7.5 7.5h497c4.143 0 7.5-3.357 7.5-7.5v-38.478c0-4.142-3.357-7.499-7.5-7.499z" fill="#000000" data-original="#000000" class=""></path>
                <path d="m504.5 0h-423.617c-4.143 0-7.5 3.358-7.5 7.5s3.357 7.5 7.5 7.5h416.117v422.023c0 4.143 3.357 7.5 7.5 7.5s7.5-3.357 7.5-7.5v-429.523c0-4.142-3.357-7.5-7.5-7.5z" fill="#000000" data-original="#000000" class=""></path>
            </g>
        </g>
    </g>
</svg>