<svg xmlns="http://www.w3.org/2000/svg" version="1.1" xmlns:xlink="http://www.w3.org/1999/xlink" xmlns:svgjs="http://svgjs.com/svgjs" width="512" height="512" x="0" y="0" viewBox="0 0 512.003 512.003" style="enable-background:new 0 0 512 512" xml:space="preserve" class=""><g><g xmlns="http://www.w3.org/2000/svg"><g><path d="m483.785 334.725c0-90.41-32.202-171.202-82.739-224.641-5.101-5.394-3.944-16.051-9.405-20.869-7.977-7.04-31.44-13.615-31.44-13.615-31.237-20.593-66.676-32.223-104.24-32.223s-73.004 11.628-104.241 32.22c0 0-24.913 8.016-32.972 15.149-7.121 6.303-6.237 17.358-12.737 24.631-47.729 53.404-69.135 132.334-69.135 219.808 0 59.086 52.625 91.444 130.383 107.136 9.091 1.834 27.951 9.18 27.951 9.18 15.526 10.574 37.005 17.126 60.751 17.126s45.226-6.551 60.751-17.125l20.866-6.372 27.571-3.013c67.754-17.833 118.636-53.624 118.636-107.392z" fill="#fecec8" data-original="#fecec8"></path><g><path d="m18.553 169.271c13.39 7.66 27.09 13.48 41.06 17.61 21.45 6.32 43.55 8.65 66.22 7.46 7.99-.42 13.41-8.32 11.03-15.96l-22.42-71.98c11.56-11.74 15.961-19.372 29.201-28.102l-16.221-9.988-10.2-3.06c-17.27-5.18-36.01-2.41-50.88 7.78-23.44 16.08-46.01 44.44-56.83 67.77-4.81 10.4-.91 22.78 9.04 28.47z" fill="#fec0b7" data-original="#fec0b7"></path><path d="m114.443 106.401c11.56-11.74 24.037-22.074 37.277-30.804l-24.297-7.286c-5.965 4.533-11.777 9.383-17.413 14.55-1.428 1.309-1.954 3.34-1.37 5.187z" fill="#feb3a7" data-original="#feb3a7"></path></g><g><path d="m493.371 169.271c-13.39 7.66-27.09 13.48-41.06 17.61-21.45 6.32-43.55 8.65-66.22 7.46-7.99-.42-13.41-8.32-11.03-15.96l22.42-71.98c-11.56-11.74-15.961-19.372-29.201-28.102l16.221-9.988 10.2-3.06c17.27-5.18 36.01-2.41 50.88 7.78 23.44 16.08 46.01 44.44 56.83 67.77 4.81 10.4.91 22.78-9.04 28.47z" fill="#fec0b7" data-original="#fec0b7"></path><path d="m397.481 106.401c-11.56-11.74-24.039-22.072-37.279-30.802l24.299-7.288c5.965 4.533 11.777 9.383 17.413 14.55 1.428 1.309 1.954 3.34 1.37 5.187z" fill="#feb3a7" data-original="#feb3a7"></path></g><path d="m209.557 363.512s54.043-43.66 55.064-43.66 36.34 44.426 36.34 44.426c-3.896 7.014-13.305 19.231-13.305 19.231-8.917 6.423-19.864 10.207-31.695 10.207-11.841 0-22.797-3.791-31.718-10.224.001 0-10.795-12.975-14.686-19.98z" fill="#fec0b7" data-original="#fec0b7"></path><path d="m303.441 365.771c-3.9 7.01-9.295 13.077-15.785 17.737-10.011-2.345-19.96-6.38-29.092-11.975-1.599-.98-3.61-.957-5.205.029-8.425 5.209-18.749 9.442-29.115 11.929-6.48-4.65-11.872-10.71-15.762-17.72 0 0 55.12-45.92 56.14-45.92 1.019 0 38.819 45.92 38.819 45.92z" fill="#feb3a7" data-original="#feb3a7"></path><path d="m353.667 323.02c0-47.169-43.744-85.407-97.705-85.407-15.902 0-30.214 2.913-42.981 8.688-30.557 13.82-50.626 42.495-50.626 75.764-.489 7.81 1.071 15.428 4.982 22.203 13.207 22.876 43.609 27.924 73.347 10.755 2.634-1.521 7.927-4.372 7.927-4.372 1.163-.856 2.294-1.736 3.391-2.64 2.299-1.893 5.618-1.893 7.918 0 3.333 2.743 6.974 5.277 10.9 7.544 29.738 17.169 64.553 12.544 77.76-10.332 3.911-6.775 5.472-14.392 4.982-22.203z" fill="#fec0b7" data-original="#fec0b7"></path><path d="m181.341 335.221c-3.91-6.77-5.47-14.39-4.98-22.2h-.1c0-27 14.33-51.08 36.72-66.72-38.378 15.902-66.315 59.511-49.916 98.277.181.428.392.847.631 1.245 13.47 22.358 47.928 26.746 77.405 9.728 2.64-1.52 5.14-3.16 7.51-4.91-27.02 10.77-55.59 4.81-67.27-15.42z" fill="#feb3a7" data-original="#feb3a7"></path><g fill="#feb3a7"><ellipse cx="214.402" cy="308.549" rx="23.658" ry="17.29" transform="matrix(.5 -.866 .866 .5 -160.01 339.952)" fill="#feb3a7" data-original="#feb3a7"></ellipse><ellipse cx="297.522" cy="308.549" rx="17.29" ry="23.658" transform="matrix(.866 -.5 .5 .866 -114.414 190.099)" fill="#feb3a7" data-original="#feb3a7"></ellipse></g><g><path d="m195.211 451.501c-9.44-1.24-18.78-2.78-27.87-4.62-1.474-.302-3.695-.743-8.69-1.86-73.6-16.67-130.51-53.43-130.51-110.3 0-62.07 15.18-119.61 41.06-166.88 7.09 6.39 12.72 11.76 12.21 12.9-18.64 42.24-29.27 91.02-29.27 142.98 0 46.06 39.54 75.52 93.21 94.61 3.758 1.34 15.131 4.802 22.885 7.153 3.75 1.137 6.949 3.64 8.898 7.039 4.78 8.336 10.773 14.139 18.077 18.978z" fill="#fec0b7" data-original="#fec0b7"></path></g><g><path d="m336.387 429.551c-5.019 9.964-11.533 16.555-19.675 21.95 16.215-2.185 30.908-4.83 48.436-9.385 4.413-5.941 7.294-12.686 9.102-19.771.8-3.135-2.284-5.878-5.305-4.72-10.332 3.959-22.269 7.851-29.148 9.321-1.47.314-2.733 1.261-3.41 2.605z" fill="#fec0b7" data-original="#fec0b7"></path></g></g><g><path d="m396.176 424.156c-17.133 6.79-36.236 12.193-56.998 16.148 2.306-3.225 4.265-6.616 5.823-10.161 1.667-3.792-.056-8.218-3.848-9.885-3.79-1.666-8.217.057-9.884 3.848-3.563 8.106-10.089 15.3-18.664 21.142-13.784 9.489-35.043 15.946-56.647 15.874-20.721.072-42.424-6.023-56.647-15.875-8.575-5.843-15.1-13.036-18.663-21.142-1.667-3.791-6.091-5.514-9.884-3.848-3.792 1.667-5.515 6.093-3.848 9.885 1.56 3.548 3.52 6.942 5.829 10.169-36.398-6.923-67.527-18.256-90.952-33.225-30.626-19.57-46.155-43.919-46.155-72.369 0-48.803 9.743-96.695 28.209-138.953 16.37 4.226 33.346 6.364 50.845 6.364 3.816 0 7.659-.101 11.524-.303 6.111-.32 11.628-3.393 15.135-8.429 3.53-5.067 4.501-11.354 2.666-17.247l-21.065-67.629c10.323-10.095 21.365-19.059 32.892-26.659 14.114-9.307 29.009-16.628 44.273-21.764 3.926-1.32 6.038-5.574 4.717-9.5s-5.577-6.038-9.5-4.717c-15.412 5.185-30.443 12.444-44.749 21.547l-31.218-9.363c-19.661-5.897-40.538-2.695-57.274 8.781-23.297 15.983-47.163 44.438-59.382 70.805-6.409 13.833-1.087 30.582 12.115 38.13 11.141 6.37 22.674 11.578 34.554 15.646-18.819 43.731-28.739 93.077-28.739 143.293 0 33.424 18.354 62.819 53.078 85.009 29.763 19.019 70.755 32.47 118.633 38.955 16.794 10.973 39.258 17.44 63.609 17.44 24.354 0 46.82-6.469 63.615-17.444 30.447-4.13 58.074-11.045 82.128-20.578 3.851-1.526 5.735-5.885 4.209-9.735-1.527-3.851-5.886-5.735-9.737-4.21zm-373.905-261.398c-6.5-3.717-9.114-11.975-5.951-18.802 11.009-23.756 33.323-50.378 54.262-64.739 12.974-8.898 29.188-11.369 44.481-6.785l19.834 5.949c-5.792 4.419-11.445 9.141-16.914 14.172l-1.813-5.822c-1.232-3.954-5.438-6.159-9.391-4.931-3.955 1.232-6.162 5.437-4.93 9.392l5.413 17.378c.005.016.01.031.015.047l22.424 71.994c.448 1.438.209 2.975-.654 4.214-.494.71-1.621 1.917-3.61 2.021-36.769 1.917-70.979-5.661-103.166-24.088z" fill="#000000" data-original="#000000"></path><path d="m255.96 230.109c-35.64 0-68.562 15.729-88.067 42.077-2.465 3.33-1.764 8.026 1.565 10.491 3.328 2.463 8.025 1.764 10.49-1.565 16.689-22.544 45.104-36.003 76.012-36.003 49.271 0 89.443 34.294 90.199 76.695.1 5.762-.369 13.493-4.074 19.663-6.755 11.696-21.004 17.982-38.134 16.819-13.328-.963-27.609-6.549-39.27-16.073-5.053-4.152-12.389-4.151-17.447.004-9.593 8.168-25.704 15.38-39.264 16.069-17.127 1.163-31.38-5.122-38.136-16.819-4.495-7.493-4.949-20.546-2.826-31.359.801-4.063-1.845-8.007-5.909-8.808-4.067-.806-8.008 1.844-8.808 5.909-1.017 5.158-1.532 10.478-1.532 15.81-.257 7.814 1.494 18.249 6.085 25.95 9.026 15.63 26.583 24.58 47.522 24.451 11.377 17.251 30.736 27.793 51.593 27.793 20.858 0 40.219-10.543 51.595-27.795 20.183.323 38.695-9.025 47.519-24.449 3.985-6.55 6.38-16.913 6.095-25.95.001-51.231-47.195-92.91-105.208-92.91zm.001 156.104c-13.141 0-25.483-5.542-34.227-14.924 7.946-1.89 15.773-5.004 23.106-9.239 3.888-2.236 7.626-4.79 11.121-7.596 3.499 2.809 7.234 5.36 11.108 7.588 7.341 4.241 15.172 7.357 23.12 9.247-8.745 9.382-21.088 14.924-34.228 14.924z" fill="#000000" data-original="#000000"></path><path d="m509.21 137.638c-4.01-8.63-9.568-17.972-16.072-27.018-2.418-3.362-7.105-4.128-10.468-1.71s-4.129 7.104-1.711 10.468c5.963 8.292 11.028 16.792 14.642 24.569 3.16 6.832.543 15.095-5.957 18.812-12.63 7.226-25.907 12.921-39.456 16.926-20.088 5.918-41.521 8.325-63.707 7.165-1.989-.104-3.115-1.312-3.61-2.021-.864-1.241-1.102-2.778-.653-4.219l22.409-71.951c.013-.041.026-.081.038-.122l5.403-17.347c1.231-3.955-.977-8.159-4.932-9.391-3.955-1.228-8.159.976-9.391 4.932l-1.813 5.821c-5.468-5.03-11.12-9.751-16.91-14.169l19.829-5.949c15.288-4.584 31.503-2.113 44.479 6.779 5.826 4 11.771 8.925 17.668 14.636 1.457 1.41 3.337 2.111 5.216 2.111 1.96 0 3.918-.764 5.389-2.283 2.881-2.976 2.805-7.724-.171-10.604-6.499-6.293-13.097-11.751-19.618-16.229-16.744-11.475-37.619-14.672-57.274-8.777l-31.18 9.355c-32.458-20.645-68.826-31.54-105.404-31.54-8.388 0-16.853.567-25.161 1.687-4.105.553-6.985 4.328-6.432 8.434.553 4.104 4.326 6.984 8.434 6.432 7.647-1.029 15.438-1.552 23.159-1.552 35.248 0 68.93 10.424 100.111 30.981 11.527 7.6 22.568 16.564 32.891 26.657l-21.063 67.629c-1.836 5.894-.865 12.181 2.664 17.25 3.506 5.037 9.022 8.11 15.134 8.431 19.396 1.142 42.99-.866 62.397-6.01 18.451 42.244 28.186 90.117 28.186 138.9 0 29.581-16.729 54.673-49.724 74.578-3.546 2.14-4.687 6.75-2.547 10.296 1.409 2.335 3.887 3.627 6.429 3.627 1.319 0 2.655-.348 3.867-1.079 37.273-22.487 56.975-52.718 56.975-87.422 0-50.206-9.916-99.542-28.727-143.265 11.843-4.077 23.431-9.318 34.54-15.673 13.42-7.675 18.632-24.067 12.121-38.145z" fill="#000000" data-original="#000000"></path><path d="m158.36 245.678c4.142 0 7.5-3.357 7.5-7.5v-16.653c0-4.143-3.358-7.5-7.5-7.5s-7.5 3.357-7.5 7.5v16.653c0 4.143 3.358 7.5 7.5 7.5z" fill="#000000" data-original="#000000"></path><path d="m361.062 238.178v-16.653c0-4.143-3.358-7.5-7.5-7.5s-7.5 3.357-7.5 7.5v16.653c0 4.143 3.358 7.5 7.5 7.5s7.5-3.357 7.5-7.5z" fill="#000000" data-original="#000000"></path><path d="m209.323 338.275c3.393 0 6.907-.755 10.333-2.269 6.506-2.875 12.265-8.226 16.213-15.065 8.735-15.131 6.148-32.428-5.89-39.378-6.038-3.486-13.632-3.66-20.833-.477-6.506 2.875-12.265 8.226-16.213 15.065-8.735 15.131-6.148 32.428 5.89 39.378 3.165 1.829 6.759 2.746 10.5 2.746zm-3.4-34.623c2.336-4.046 5.72-7.27 9.286-8.846 1.017-.449 2.61-1.004 4.279-1.004 1.007 0 2.041.202 2.992.751 4.01 2.315 5.16 10.642.399 18.888-2.336 4.046-5.72 7.27-9.286 8.846-1.63.72-4.744 1.711-7.271.253-4.009-2.316-5.16-10.642-.399-18.888z" fill="#000000" data-original="#000000"></path><path d="m292.266 336.006c3.426 1.514 6.94 2.269 10.333 2.269 3.741 0 7.335-.917 10.5-2.745 12.038-6.95 14.625-24.247 5.89-39.378-3.949-6.84-9.707-12.19-16.213-15.065-7.202-3.183-14.795-3.01-20.833.477-12.038 6.95-14.625 24.247-5.89 39.378 3.948 6.839 9.706 12.189 16.213 15.064zm-2.824-41.453c.951-.549 1.985-.751 2.992-.751 1.668 0 3.262.555 4.279 1.004 3.566 1.576 6.95 4.8 9.286 8.846 4.761 8.246 3.61 16.572-.399 18.888-2.526 1.459-5.639.468-7.271-.253-3.566-1.576-6.95-4.8-9.286-8.846-4.761-8.246-3.611-16.573.399-18.888z" fill="#000000" data-original="#000000"></path><path d="m437.312 350.182c4.142 0 7.5-3.357 7.5-7.5s-3.358-7.5-7.5-7.5h-.01c-4.142 0-7.495 3.357-7.495 7.5s3.362 7.5 7.505 7.5z" fill="#000000" data-original="#000000"></path><path d="m407.312 340.182h-.01c-4.142 0-7.495 3.357-7.495 7.5s3.363 7.5 7.505 7.5 7.5-3.357 7.5-7.5-3.358-7.5-7.5-7.5z" fill="#000000" data-original="#000000"></path><path d="m433.794 365.682c0-4.143-3.358-7.5-7.5-7.5h-.01c-4.142 0-7.495 3.357-7.495 7.5s3.363 7.5 7.505 7.5 7.5-3.357 7.5-7.5z" fill="#000000" data-original="#000000"></path><path d="m74.648 335.182h-.01c-4.142 0-7.495 3.357-7.495 7.5s3.363 7.5 7.505 7.5 7.5-3.357 7.5-7.5-3.358-7.5-7.5-7.5z" fill="#000000" data-original="#000000"></path><path d="m104.638 340.182c-4.142 0-7.495 3.357-7.495 7.5s3.363 7.5 7.505 7.5 7.5-3.357 7.5-7.5-3.358-7.5-7.5-7.5z" fill="#000000" data-original="#000000"></path><path d="m85.648 373.182c4.142 0 7.5-3.357 7.5-7.5s-3.358-7.5-7.5-7.5h-.01c-4.142 0-7.495 3.357-7.495 7.5s3.363 7.5 7.505 7.5z" fill="#000000" data-original="#000000"></path><path d="m78.004 145.768h-.01c-4.142 0-7.495 3.357-7.495 7.5s3.363 7.5 7.505 7.5 7.5-3.357 7.5-7.5-3.357-7.5-7.5-7.5z" fill="#000000" data-original="#000000"></path><path d="m76.865 130.375c4.142 0 7.5-3.357 7.5-7.5s-3.358-7.5-7.5-7.5h-.01c-4.142 0-7.495 3.357-7.495 7.5s3.362 7.5 7.505 7.5z" fill="#000000" data-original="#000000"></path><path d="m56.558 130.767h-.01c-4.142 0-7.495 3.357-7.495 7.5s3.363 7.5 7.505 7.5 7.5-3.357 7.5-7.5-3.358-7.5-7.5-7.5z" fill="#000000" data-original="#000000"></path></g></g></g></svg>