<svg xmlns="http://www.w3.org/2000/svg" version="1.1" xmlns:xlink="http://www.w3.org/1999/xlink" xmlns:svgjs="http://svgjs.com/svgjs" width="512" height="512" x="0" y="0" viewBox="0 0 512 512" style="enable-background:new 0 0 512 512" xml:space="preserve" class="">
    <g>
        <g xmlns="http://www.w3.org/2000/svg">
            <g>
                <g>
                    <path d="m89.786 451.034h-72.286c-5.523 0-10-4.477-10-10v-370.068c0-5.523 4.477-10 10-10h72.286c5.523 0 10 4.477 10 10v370.068c0 5.523-4.477 10-10 10z" fill="#ff6a98" data-original="#ff6a98" class=""></path>
                    <path d="m221.357 431.034h-72.286c-5.523 0-10-4.477-10-10v-330.068c0-5.523 4.477-10 10-10h72.286c5.523 0 10 4.477 10 10v330.068c0 5.523-4.477 10-10 10z" fill="#f5e082" data-original="#f5e082" class=""></path>
                    <path d="m352.928 411.034h-72.286c-5.523 0-10-4.477-10-10v-290.068c0-5.523 4.477-10 10-10h72.286c5.523 0 10 4.477 10 10v290.068c0 5.523-4.477 10-10 10z" fill="#e4fd82" data-original="#e4fd82" class=""></path>
                    <path d="m484.5 391.034h-72.286c-5.523 0-10-4.477-10-10v-250.068c0-5.523 4.477-10 10-10h72.286c5.523 0 10 4.477 10 10v250.068c0 5.523-4.477 10-10 10z" fill="#64caea" data-original="#64caea" class=""></path>
                    <path d="m99.786 60.966h-25c5.523 0 10 4.477 10 10v370.068c0 5.523-4.477 10-10 10h25c5.523 0 10-4.477 10-10v-370.068c0-5.523-4.477-10-10-10z" fill="#ff3888" data-original="#ff3888"></path>
                    <path d="m231.357 80.966h-24c5.523 0 10 4.477 10 10v330.068c0 5.523-4.477 10-10 10h24c5.523 0 10-4.477 10-10v-330.068c0-5.523-4.477-10-10-10z" fill="#f5bb6c" data-original="#f5bb6c"></path>
                    <path d="m362.928 100.966h-25c5.523 0 10 4.477 10 10v290.068c0 5.523-4.477 10-10 10h25c5.523 0 10-4.477 10-10v-290.068c0-5.523-4.477-10-10-10z" fill="#cee76e" data-original="#cee76e" class=""></path>
                    <path d="m494.5 120.966h-25c5.523 0 10 4.477 10 10v250.068c0 5.523-4.477 10-10 10h25c5.523 0 10-4.477 10-10v-250.068c0-5.523-4.477-10-10-10z" fill="#00a2d5" data-original="#00a2d5"></path>
                    <path d="m76.731 120.054c0 10.542-7.546 18.089-18.089 18.089-1.233 0-2.438.883-3.606.66-8.818-1.686-15.483-9.439-15.483-18.749 0-9.309 6.664-17.062 15.483-18.748 1.168-.223 2.373.66 3.606.66 10.543 0 18.089 7.546 18.089 18.088z" fill="#e9e9e9" data-original="#e9e9e9"></path>
                    <path d="m58.643 100.966c-1.233 0-2.436.127-3.604.351 8.818 1.687 15.485 9.429 15.485 18.738s-6.667 17.051-15.485 18.738c1.168.223 2.371.351 3.604.351 10.543 0 19.089-8.546 19.089-19.089s-8.547-19.089-19.089-19.089z" fill="#d4d2d8" data-original="#d4d2d8"></path>
                    <path d="m208.303 140.054c0 10.542-7.546 18.089-18.089 18.089-1.233 0-2.438.883-3.606.66-8.818-1.686-15.482-9.439-15.482-18.749 0-9.309 6.664-17.062 15.482-18.748 1.168-.223 2.373.66 3.606.66 10.543 0 18.089 7.546 18.089 18.088z" fill="#e9e9e9" data-original="#e9e9e9"></path>
                    <path d="m190.214 120.966c-1.233 0-2.436.127-3.604.351 8.818 1.687 15.485 9.429 15.485 18.738s-6.667 17.051-15.485 18.738c1.168.223 2.371.351 3.604.351 10.542 0 19.089-8.546 19.089-19.089s-8.546-19.089-19.089-19.089z" fill="#d4d2d8" data-original="#d4d2d8"></path>
                    <path d="m208.303 371.946c0 10.542-7.546 18.089-18.089 18.089-1.233 0-2.438.883-3.606.66-8.818-1.686-15.482-9.439-15.482-18.749 0-9.309 6.664-17.062 15.482-18.748 1.168-.223 2.373.66 3.606.66 10.543-.001 18.089 7.545 18.089 18.088z" fill="#e9e9e9" data-original="#e9e9e9"></path>
                    <path d="m190.214 352.857c-1.233 0-2.436.127-3.604.351 8.818 1.686 15.485 9.429 15.485 18.738s-6.667 17.051-15.485 18.738c1.168.223 2.371.351 3.604.351 10.542 0 19.089-8.546 19.089-19.089s-8.546-19.089-19.089-19.089z" fill="#d4d2d8" data-original="#d4d2d8"></path>
                    <path d="m339.874 351.946c0 10.542-7.546 18.089-18.089 18.089-1.233 0-2.438.883-3.606.66-8.818-1.686-15.482-9.439-15.482-18.749 0-9.309 6.664-17.062 15.482-18.748 1.168-.223 2.373.66 3.606.66 10.543-.001 18.089 7.545 18.089 18.088z" fill="#e9e9e9" data-original="#e9e9e9"></path>
                    <path d="m321.786 332.857c-1.233 0-2.436.127-3.604.351 8.818 1.686 15.485 9.429 15.485 18.738s-6.667 17.051-15.485 18.738c1.168.223 2.371.351 3.604.351 10.542 0 19.089-8.546 19.089-19.089-.001-10.543-8.547-19.089-19.089-19.089z" fill="#d4d2d8" data-original="#d4d2d8"></path>
                    <path d="m339.874 160.054c0 10.542-7.546 18.089-18.089 18.089-1.233 0-2.438.883-3.606.66-8.818-1.686-15.482-9.439-15.482-18.749 0-9.309 6.664-17.062 15.482-18.749 1.168-.223 2.373.66 3.606.66 10.543.001 18.089 7.547 18.089 18.089z" fill="#e9e9e9" data-original="#e9e9e9"></path>
                    <path d="m321.786 140.966c-1.233 0-2.436.127-3.604.351 8.818 1.687 15.485 9.429 15.485 18.738s-6.667 17.051-15.485 18.738c1.168.223 2.371.351 3.604.351 10.542 0 19.089-8.546 19.089-19.089s-8.547-19.089-19.089-19.089z" fill="#d4d2d8" data-original="#d4d2d8"></path>
                    <path d="m471.446 180.054c0 10.542-7.546 18.089-18.089 18.089-1.233 0-2.438.883-3.606.66-8.818-1.686-15.483-9.439-15.483-18.749 0-9.309 6.664-17.062 15.483-18.749 1.168-.223 2.373.66 3.606.66 10.543.001 18.089 7.547 18.089 18.089z" fill="#e9e9e9" data-original="#e9e9e9"></path>
                    <path d="m453.357 160.966c-1.233 0-2.436.127-3.604.351 8.817 1.687 15.485 9.429 15.485 18.738s-6.667 17.051-15.485 18.738c1.168.223 2.371.351 3.604.351 10.543 0 19.089-8.546 19.089-19.089s-8.546-19.089-19.089-19.089z" fill="#d4d2d8" data-original="#d4d2d8"></path>
                    <path d="m471.446 331.946c0 10.542-7.546 18.089-18.089 18.089-1.233 0-2.438.883-3.606.66-8.818-1.686-15.483-9.439-15.483-18.749 0-9.309 6.664-17.062 15.483-18.748 1.168-.223 2.373.66 3.606.66 10.543-.001 18.089 7.545 18.089 18.088z" fill="#e9e9e9" data-original="#e9e9e9"></path>
                    <path d="m453.357 312.857c-1.233 0-2.436.127-3.604.351 8.817 1.686 15.485 9.429 15.485 18.738s-6.667 17.051-15.485 18.738c1.168.223 2.371.351 3.604.351 10.543 0 19.089-8.546 19.089-19.089s-8.546-19.089-19.089-19.089z" fill="#d4d2d8" data-original="#d4d2d8"></path>
                    <path d="m76.731 391.946c0 10.542-7.546 18.089-18.089 18.089-1.233 0-2.438.883-3.606.66-8.818-1.686-15.483-9.439-15.483-18.749 0-9.309 6.664-17.062 15.483-18.748 1.168-.223 2.373.66 3.606.66 10.543-.001 18.089 7.545 18.089 18.088z" fill="#e9e9e9" data-original="#e9e9e9"></path>
                    <path d="m58.643 372.857c-1.233 0-2.436.127-3.604.351 8.818 1.686 15.485 9.429 15.485 18.738s-6.667 17.051-15.485 18.738c1.168.223 2.371.351 3.604.351 10.543 0 19.089-8.546 19.089-19.089-.001-10.543-8.547-19.089-19.089-19.089z" fill="#d4d2d8" data-original="#d4d2d8"></path>
                    <path d="m471.446 464.362c0 10.542-7.546 18.089-18.089 18.089-1.233 0-2.438.883-3.606.66-8.818-1.686-15.483-9.439-15.483-18.749s6.664-17.062 15.483-18.749c1.168-.223 2.373.66 3.606.66 10.543 0 18.089 7.546 18.089 18.089z" fill="#e9e9e9" data-original="#e9e9e9"></path>
                    <path d="m453.357 445.273c-1.233 0-2.436.127-3.604.351 8.817 1.686 15.485 9.429 15.485 18.738s-6.667 17.051-15.485 18.738c1.168.223 2.371.351 3.604.351 10.543 0 19.089-8.546 19.089-19.089s-8.546-19.089-19.089-19.089z" fill="#d4d2d8" data-original="#d4d2d8"></path>
                    <path d="m471.446 47.638c0 10.542-7.546 18.089-18.089 18.089-1.233 0-2.438.883-3.606.66-8.818-1.686-15.483-9.439-15.483-18.748s6.664-17.062 15.483-18.748c1.168-.223 2.373.66 3.606.66 10.543-.002 18.089 7.545 18.089 18.087z" fill="#e9e9e9" data-original="#e9e9e9"></path>
                    <path d="m453.357 28.549c-1.233 0-2.436.127-3.604.351 8.817 1.687 15.485 9.429 15.485 18.738s-6.667 17.051-15.485 18.738c1.168.223 2.371.351 3.604.351 10.543 0 19.089-8.546 19.089-19.089s-8.546-19.089-19.089-19.089z" fill="#d4d2d8" data-original="#d4d2d8"></path>
                </g>
            </g>
            <g>
                <path d="m58.643 93.466c-14.66 0-26.588 11.928-26.588 26.588 0 14.661 11.928 26.589 26.588 26.589 14.661 0 26.589-11.928 26.589-26.589-.001-14.66-11.928-26.588-26.589-26.588zm0 38.177c-6.39 0-11.588-5.199-11.588-11.589s5.198-11.588 11.588-11.588 11.589 5.199 11.589 11.588c-.001 6.39-5.2 11.589-11.589 11.589z" fill="#000000" data-original="#000000" class=""></path>
                <path d="m190.214 113.466c-14.66 0-26.588 11.928-26.588 26.588 0 14.661 11.928 26.589 26.588 26.589 14.661 0 26.589-11.928 26.589-26.589 0-14.66-11.928-26.588-26.589-26.588zm0 38.177c-6.39 0-11.588-5.199-11.588-11.589s5.198-11.588 11.588-11.588 11.589 5.199 11.589 11.588c0 6.39-5.199 11.589-11.589 11.589z" fill="#000000" data-original="#000000" class=""></path>
                <path d="m190.214 345.357c-14.66 0-26.588 11.928-26.588 26.589s11.928 26.588 26.588 26.588c14.661 0 26.589-11.928 26.589-26.588 0-14.661-11.928-26.589-26.589-26.589zm0 38.177c-6.39 0-11.588-5.199-11.588-11.588 0-6.39 5.198-11.589 11.588-11.589s11.589 5.199 11.589 11.589c0 6.389-5.199 11.588-11.589 11.588z" fill="#000000" data-original="#000000" class=""></path>
                <path d="m321.786 325.357c-14.661 0-26.589 11.928-26.589 26.589s11.928 26.588 26.589 26.588c14.66 0 26.588-11.928 26.588-26.588 0-14.661-11.928-26.589-26.588-26.589zm0 38.177c-6.39 0-11.589-5.199-11.589-11.588 0-6.39 5.199-11.589 11.589-11.589s11.588 5.199 11.588 11.589c0 6.389-5.198 11.588-11.588 11.588z" fill="#000000" data-original="#000000" class=""></path>
                <path d="m321.786 133.466c-14.661 0-26.589 11.928-26.589 26.588 0 14.661 11.928 26.589 26.589 26.589 14.66 0 26.588-11.928 26.588-26.589 0-14.66-11.928-26.588-26.588-26.588zm0 38.177c-6.39 0-11.589-5.199-11.589-11.589s5.199-11.588 11.589-11.588 11.588 5.199 11.588 11.588c0 6.39-5.198 11.589-11.588 11.589z" fill="#000000" data-original="#000000" class=""></path>
                <path d="m453.357 153.466c-14.661 0-26.589 11.928-26.589 26.588 0 14.661 11.928 26.589 26.589 26.589 14.66 0 26.588-11.928 26.588-26.589 0-14.66-11.927-26.588-26.588-26.588zm0 38.177c-6.39 0-11.589-5.199-11.589-11.589s5.199-11.588 11.589-11.588 11.588 5.199 11.588 11.588c0 6.39-5.198 11.589-11.588 11.589z" fill="#000000" data-original="#000000" class=""></path>
                <path d="m453.357 305.357c-14.661 0-26.589 11.928-26.589 26.589s11.928 26.588 26.589 26.588c14.66 0 26.588-11.928 26.588-26.588 0-14.661-11.927-26.589-26.588-26.589zm0 38.177c-6.39 0-11.589-5.199-11.589-11.588 0-6.39 5.199-11.589 11.589-11.589s11.588 5.199 11.588 11.589c0 6.389-5.198 11.588-11.588 11.588z" fill="#000000" data-original="#000000" class=""></path>
                <path d="m58.643 365.357c-14.66 0-26.588 11.928-26.588 26.589s11.928 26.588 26.588 26.588c14.661 0 26.589-11.928 26.589-26.588-.001-14.661-11.928-26.589-26.589-26.589zm0 38.177c-6.39 0-11.588-5.199-11.588-11.588 0-6.39 5.198-11.589 11.588-11.589s11.589 5.199 11.589 11.589c-.001 6.389-5.2 11.588-11.589 11.588z" fill="#000000" data-original="#000000" class=""></path>
                <path d="m453.357 437.773c-12.057 0-22.258 8.069-25.505 19.088h-237.638c-4.143 0-7.5 3.358-7.5 7.5s3.357 7.5 7.5 7.5h237.639c3.246 11.02 13.448 19.089 25.505 19.089 14.66 0 26.588-11.928 26.588-26.589-.001-14.66-11.928-26.588-26.589-26.588zm0 38.178c-6.39 0-11.589-5.199-11.589-11.589s5.199-11.588 11.589-11.588 11.588 5.199 11.588 11.588c0 6.39-5.198 11.589-11.588 11.589z" fill="#000000" data-original="#000000" class=""></path>
                <path d="m190.214 55.138h237.639c3.246 11.019 13.448 19.088 25.505 19.088 14.66 0 26.588-11.928 26.588-26.588 0-14.661-11.928-26.589-26.588-26.589-12.057 0-22.258 8.069-25.505 19.089h-237.639c-4.143 0-7.5 3.358-7.5 7.5s3.357 7.5 7.5 7.5zm263.143-19.089c6.39 0 11.588 5.199 11.588 11.589s-5.198 11.588-11.588 11.588-11.589-5.199-11.589-11.588c.001-6.39 5.2-11.589 11.589-11.589z" fill="#000000" data-original="#000000" class=""></path>
                <path d="m494.5 113.466h-82.285c-9.649 0-17.5 7.851-17.5 17.5v32.588l-14.286-2.172v-50.416c0-9.649-7.851-17.5-17.5-17.5h-82.286c-9.649 0-17.5 7.851-17.5 17.5v32.588l-14.285-2.172v-50.416c0-9.649-7.851-17.5-17.5-17.5h-82.286c-9.649 0-17.5 7.851-17.5 17.5v32.588l-14.286-2.172v-50.416c0-9.649-7.851-17.5-17.5-17.5h-82.286c-9.649 0-17.5 7.851-17.5 17.5v370.068c0 9.649 7.851 17.5 17.5 17.5h82.285c9.649 0 17.5-7.851 17.5-17.5v-50.417l14.286-2.172v32.588c0 9.649 7.851 17.5 17.5 17.5h82.286c9.649 0 17.5-7.851 17.5-17.5v-50.417l14.285-2.172v32.588c0 9.649 7.851 17.5 17.5 17.5h82.286c9.649 0 17.5-7.851 17.5-17.5v-50.417l14.286-2.172v32.588c0 9.649 7.851 17.5 17.5 17.5h82.286c9.649 0 17.5-7.851 17.5-17.5v-250.065c0-9.65-7.851-17.5-17.5-17.5zm-377.215 261.979v-25.941c0-4.142-3.358-7.5-7.5-7.5-4.143 0-7.5 3.358-7.5 7.5v91.53c0 1.378-1.121 2.5-2.5 2.5h-82.285c-1.379 0-2.5-1.122-2.5-2.5v-370.068c0-1.378 1.121-2.5 2.5-2.5h82.285c1.379 0 2.5 1.122 2.5 2.5v244.736c0 4.142 3.357 7.5 7.5 7.5 4.142 0 7.5-3.358 7.5-7.5v-179.147l14.286 2.172v234.547zm131.572-20v-151.547c0-4.142-3.357-7.5-7.5-7.5s-7.5 3.358-7.5 7.5v217.136c0 1.378-1.121 2.5-2.5 2.5h-82.286c-1.379 0-2.5-1.122-2.5-2.5v-330.068c0-1.378 1.121-2.5 2.5-2.5h82.286c1.379 0 2.5 1.122 2.5 2.5v79.805c0 4.142 3.357 7.5 7.5 7.5s7.5-3.358 7.5-7.5v-14.216l14.285 2.171v194.547zm116.572 45.589c0 1.378-1.121 2.5-2.5 2.5h-82.286c-1.379 0-2.5-1.122-2.5-2.5v-290.068c0-1.378 1.121-2.5 2.5-2.5h82.286c1.379 0 2.5 1.122 2.5 2.5zm131.571-20c0 1.378-1.121 2.5-2.5 2.5h-82.285c-1.379 0-2.5-1.122-2.5-2.5v-83.829c0-4.142-3.357-7.5-7.5-7.5s-7.5 3.358-7.5 7.5v36.068l-14.286 2.172v-158.89l14.286 2.172v85.793c0 4.142 3.357 7.5 7.5 7.5s7.5-3.358 7.5-7.5v-133.554c0-1.378 1.121-2.5 2.5-2.5h82.285c1.379 0 2.5 1.122 2.5 2.5z" fill="#000000" data-original="#000000" class=""></path>
            </g>
        </g>
    </g>
</svg>