<svg xmlns="http://www.w3.org/2000/svg" version="1.1" xmlns:xlink="http://www.w3.org/1999/xlink" xmlns:svgjs="http://svgjs.com/svgjs" width="512" height="512" x="0" y="0" viewBox="0 0 512 512" style="enable-background:new 0 0 512 512" xml:space="preserve" class=""><g><path xmlns="http://www.w3.org/2000/svg" d="m256.154 265.58c-13.756 0-24.992 10.99-25.297 24.743l-.252 11.406c-.288 2.7-.49 4.514-.49 4.514-5.569 44.54-43.432 77.962-88.318 77.962h-41.827c-31.966 0-58.526-24.643-60.918-56.519l-2.337-31.145c-.655-8.732-5.14-16.727-12.25-21.838l-15.673-11.266c-.811-.583-1.292-1.52-1.292-2.519v-33.701c0-1.077.335-2.106.93-2.961h166.417c10.288 0 19.882 2.674 28.185 7.327 7.633 4.277 16.666 5.334 25.191 3.363 12.055-2.787 19.916-4.181 27.777-4.181s15.722 1.394 27.777 4.181c8.525 1.971 17.558.915 25.191-3.363 8.303-4.653 17.897-7.327 28.185-7.327h166.417c.596.855.93 1.884.93 2.961v33.701c0 .999-.481 1.936-1.292 2.519l-15.674 11.267c-7.11 5.111-11.595 13.106-12.25 21.838l-2.337 31.145c-2.391 31.876-28.952 56.519-60.918 56.519h-41.827c-44.886 0-82.749-33.423-88.318-77.962 0 0-.202-1.814-.49-4.514l-.252-11.406c-.304-13.753-11.54-24.743-25.297-24.743h.309z" fill="#9b9595" data-original="#9b9595" class=""></path><path xmlns="http://www.w3.org/2000/svg" d="m503.57 224.256h-39.07v9.679c0 11.661-5.613 22.609-15.082 29.415l-1.883 1.354c-7.11 5.111-11.595 13.106-12.25 21.838l-2.337 31.145c-2.392 31.876-28.952 56.519-60.918 56.519h-41.827c-.341 0-.681-.002-1.02-.006 12.322 6.408 26.293 10.006 41.02 10.006h41.827c31.966 0 58.526-24.643 60.918-56.519l2.337-31.145c.655-8.732 5.14-16.727 12.25-21.838l15.674-11.267c.811-.583 1.292-1.52 1.292-2.519v-33.701c-.001-1.077-.336-2.106-.931-2.961z" fill="#736e6e" data-original="#736e6e"></path><path xmlns="http://www.w3.org/2000/svg" d="m216 255.581c-13.686.081-24.84 11.041-25.143 24.742l-.252 11.406c-.288 2.7-.49 4.514-.49 4.514-5.569 44.54-43.432 77.962-88.318 77.962h-35.327c9.645 6.334 21.17 10 33.5 10h41.827c44.886 0 82.749-33.423 88.318-77.962 0 0 .202-1.814.49-4.514l.252-11.406c.163-7.378 3.473-13.961 8.63-18.478-3.626-9.481-12.782-16.2-23.487-16.264z" fill="#736e6e" data-original="#736e6e"></path><path xmlns="http://www.w3.org/2000/svg" d="m439.677 224.249c.004.004.01.007.016.007h63.877c-.419-.602-.968-1.118-1.621-1.502l-148.78-87.584c-8.369-4.832-17.862-7.376-27.526-7.376h-45.609c-4.628 0-8.396 3.748-8.401 8.375-.014 13.915 11.263 25.2 25.175 25.2h30.598c2.611 0 5.171.719 7.4 2.077z" fill="#595454" data-original="#595454"></path><path xmlns="http://www.w3.org/2000/svg" d="m412.03 359.205c18.775 0 34.583-14.666 35.987-33.389l3.85-51.315c1.022-13.626-9.758-25.246-23.422-25.246h-95.552c-17.49 0-31.022 15.329-28.852 32.684l2.651 21.201c4.005 32.029 31.232 56.064 63.511 56.064h41.827z" fill="#dae7ef" data-original="#dae7ef"></path><path xmlns="http://www.w3.org/2000/svg" d="m72.323 224.249c-.004.004-.01.007-.016.007h-63.877c.42-.602.968-1.118 1.621-1.502l148.779-87.583c8.369-4.832 17.862-7.376 27.526-7.376h45.609c4.628 0 8.396 3.748 8.401 8.375.014 13.915-11.263 25.2-25.175 25.2h-30.598c-2.61 0-5.171.719-7.4 2.077z" fill="#595454" data-original="#595454"></path><path xmlns="http://www.w3.org/2000/svg" d="m99.97 359.205c-18.775 0-34.583-14.666-35.987-33.389l-3.85-51.315c-1.022-13.626 9.758-25.246 23.422-25.246h95.552c17.49 0 31.022 15.329 28.852 32.684l-2.651 21.201c-4.005 32.029-31.232 56.064-63.511 56.064h-41.827z" fill="#dae7ef" data-original="#dae7ef"></path><path xmlns="http://www.w3.org/2000/svg" d="m428.445 249.256h-16.766c.253 1.699.323 3.455.188 5.246l-3.85 51.315c-1.404 18.723-17.212 33.389-35.987 33.389h-41.828c-2.301 0-4.575-.122-6.818-.361 11.747 12.591 28.466 20.361 46.818 20.361h41.828c18.775 0 34.583-14.666 35.987-33.389l3.85-51.315c1.023-13.627-9.757-25.246-23.422-25.246z" fill="#c1d5e4" data-original="#c1d5e4"></path><path xmlns="http://www.w3.org/2000/svg" d="m179.107 249.256h-12.365c1.3 3.948 1.771 8.25 1.217 12.684l-2.651 21.2c-4.005 32.029-31.232 56.064-63.511 56.064h-34.103c5.971 11.875 18.301 20 32.276 20h41.828c32.279 0 59.506-24.035 63.511-56.064l2.651-21.2c2.169-17.355-11.363-32.684-28.853-32.684z" fill="#c1d5e4" data-original="#c1d5e4"></path><path xmlns="http://www.w3.org/2000/svg" d="m332.894 256.756h54.425c4.143 0 7.5-3.357 7.5-7.5s-3.357-7.5-7.5-7.5h-54.425c-21.958 0-39.027 19.264-36.295 41.115l2.651 21.2c4.464 35.707 34.967 62.634 70.953 62.634h41.827c22.678 0 41.771-17.714 43.466-40.327l3.85-51.314c1.349-17.959-12.89-33.308-30.9-33.308h-6.127c-4.143 0-7.5 3.357-7.5 7.5s3.357 7.5 7.5 7.5h6.127c9.256 0 16.643 7.845 15.943 17.185l-3.85 51.315c-1.113 14.831-13.636 26.449-28.509 26.449h-41.827c-28.438 0-52.541-21.278-56.068-49.495l-2.651-21.2c-1.605-12.829 8.392-24.254 21.41-24.254z" fill="#000000" data-original="#000000" class=""></path><path xmlns="http://www.w3.org/2000/svg" d="m52.653 275.063 3.85 51.313c1.696 22.614 20.789 40.328 43.466 40.328h41.828c35.985 0 66.488-26.927 70.953-62.634l2.651-21.2c2.725-21.789-14.275-41.115-36.294-41.115h-95.552c-18.01.001-32.249 15.348-30.902 33.308zm147.864 5.947-2.651 21.2c-3.528 28.217-27.633 49.495-56.069 49.495h-41.827c-14.874 0-27.396-11.618-28.508-26.45l-3.85-51.314c-.692-9.231 6.579-17.185 15.943-17.185h95.552c12.952 0 23.021 11.364 21.41 24.254z" fill="#000000" data-original="#000000" class=""></path><path xmlns="http://www.w3.org/2000/svg" d="m4.414 269.527 15.674 11.267c5.323 3.827 8.658 9.771 9.148 16.31l2.336 31.145c2.684 35.766 32.477 63.457 68.397 63.457h41.827c50.098 0 90.487-38.382 95.772-84.634.678-6.098.479-2.712.786-16.582.211-9.548 8.112-17.325 17.645-17.408 9.533.083 17.434 7.86 17.645 17.408.31 13.97.11 10.487.787 16.584 5.283 46.224 45.653 84.632 95.771 84.632h41.827c35.867 0 65.71-27.638 68.397-63.458l2.335-31.144c.491-6.538 3.826-12.482 9.149-16.31l15.672-11.266c2.766-1.986 4.416-5.205 4.416-8.61v-33.701c0-4.61-2.475-8.704-6.247-10.926l-148.831-87.615c-9.495-5.482-20.311-8.381-31.276-8.381h-45.609c-8.758 0-15.892 7.118-15.9 15.867-.018 18.069 14.598 32.708 32.675 32.708h30.599c1.233 0 2.442.34 3.497.982 2.822 1.705-12.208-7.076 41.437 24.025 3.582 2.078 8.173.857 10.25-2.727 2.078-3.583.857-8.173-2.727-10.25l-41.232-23.906c-3.389-2.045-7.268-3.125-11.225-3.125h-30.599c-9.775 0-17.685-7.916-17.675-17.692 0-.486.404-.883.9-.883h45.609c8.336 0 16.558 2.203 23.721 6.339l127.612 75.122h-35.27l-31.079-18.019c-3.58-2.076-8.173-.856-10.25 2.727-2.078 3.583-.857 8.173 2.727 10.25l8.696 5.042h-74.648c-11.167 0-22.181 2.865-31.851 8.284-5.854 3.28-12.898 4.203-19.835 2.598-25.231-5.832-33.704-5.833-58.934.001-6.938 1.605-13.981.682-19.834-2.599-9.671-5.419-20.685-8.284-31.851-8.284h-26.199c-4.142 0-7.5 3.357-7.5 7.5s3.358 7.5 7.5 7.5h26.199c8.604 0 17.082 2.202 24.518 6.37 9.116 5.108 19.965 6.572 30.547 4.127 22.936-5.304 29.225-5.307 52.174-.001 10.586 2.449 21.432.982 30.548-4.126 7.435-4.168 15.913-6.37 24.518-6.37h159.847v26.907l-13.844 9.951c-8.933 6.423-14.528 16.397-15.352 27.367l-2.335 31.144c-2.086 27.802-25.56 49.58-53.439 49.58h-41.827c-41 0-75.756-30.664-80.868-71.339-.561-4.962-.419-2.821-.694-15.209-.39-17.677-15.094-32.077-32.794-32.077-16.967 0-32.09 14.091-32.487 32.077-.281 12.683-.119 9.991-.692 15.202-5.109 40.679-39.868 71.346-80.871 71.346h-41.827c-27.88 0-51.353-21.778-53.439-49.58l-2.336-31.145c-.823-10.97-6.418-20.945-15.352-27.366l-13.843-9.949v-26.908h98.649c4.142 0 7.5-3.357 7.5-7.5s-3.358-7.5-7.5-7.5h-13.449c82.999-48.121 80.788-46.838 80.897-46.904 1.054-.642 2.263-.981 3.497-.981h30.598c18.07 0 32.693-14.633 32.675-32.707-.008-8.75-7.141-15.868-15.9-15.868h-45.609c-10.967 0-21.782 2.898-31.331 8.413l-148.781 87.582c-3.821 2.25-6.246 6.357-6.246 10.926v33.701c0 3.404 1.65 6.623 4.414 8.609zm158.168-127.861c7.217-4.168 15.439-6.371 23.775-6.371h45.609c.496 0 .9.396.9.883.01 9.774-7.898 17.692-17.675 17.692h-30.598c-3.957 0-7.836 1.08-11.223 3.125l-103.075 59.761h-35.27z" fill="#000000" data-original="#000000" class=""></path></g></svg>