<svg xmlns="http://www.w3.org/2000/svg" version="1.1" xmlns:xlink="http://www.w3.org/1999/xlink" xmlns:svgjs="http://svgjs.com/svgjs" width="512" height="512" x="0" y="0" viewBox="0 0 512.276 512.276" style="enable-background:new 0 0 512 512" xml:space="preserve" class=""><g><g xmlns="http://www.w3.org/2000/svg"><g><g><g><g><path d="m250.456 253.299s235.831-135.213 250.989-108.25c15.912 28.304-29.281 96.94-139.546 158.586-59.458 33.241-122.586 51.056-190.257 54.522z" fill="#db8e57" data-original="#db8e57"></path></g><path d="m501.445 145.049c-3.412-6.07-18.013-3.918-38.585 3.058 11.313 29.952-34.478 95.998-140.961 155.529-46.62 26.064-95.497 42.64-147.05 50.256l-3.207 4.267c67.671-3.467 130.799-21.281 190.257-54.522 110.265-61.648 155.458-130.284 139.546-158.588z" fill="#d17d41" data-original="#d17d41"></path><g><path d="m220.406 221.625c-135.679 77.041-229.832 167.666-210.297 202.415 15.912 28.304 97.731 24.82 207.174-38.289 59.015-34.03 106.775-79.18 144.652-135.646 32.207-48.013 82.655-90.57 139.51-105.056-19.535-34.749-145.36-.465-281.039 76.576z" fill="#ebb58f" data-original="#ebb58f"></path></g><path d="m325.741 154.993c-34.012-60.502-121.456-102.328-181.236-68.383s-69.259 130.805-35.247 191.307l21.163 37.645s46.219-8.765 115.69-48.212 100.793-74.712 100.793-74.712z" fill="#fcf9f6" data-original="#fcf9f6"></path><path d="m314.331 134.696c-34.012-60.502-110.046-82.031-169.826-48.086s-80.67 110.509-46.657 171.01l21.39 38.049s46.219-8.765 115.69-48.212 98.944-78.001 98.944-78.001z" fill="#ebb58f" data-original="#ebb58f"></path><g><path d="m274.331 134.697 34.379 60.536c17.26-15.441 25.162-25.776 25.162-25.776l-19.541-34.76c-26.609-47.333-78.938-70.811-129.083-62.535 36.192 5.926 69.561 27.807 89.083 62.535z" fill="#e6a67a" data-original="#e6a67a"></path></g><g><path d="m107.029 273.954 23.391 41.608s46.219-8.765 115.69-48.212 100.793-74.712 100.793-74.712l-23.391-41.608s-31.322 35.264-100.793 74.712-115.69 48.212-115.69 48.212z" fill="#fff345" data-original="#fff345"></path></g><g><path d="m323.513 151.03s-8.675 9.758-26.988 24.74l23.391 41.608c18.313-14.982 26.988-24.74 26.988-24.74z" fill="#ffea05" data-original="#ffea05"></path></g></g><path d="m124.553 338.229c10.082-15.706 16.103-31.372 16.89-42.084.569-4.027-.229-7.763-2.396-11.211-5.099-9.466-17.006-21.337-32.638-31.6-24.418-16.032-48.68-22.07-54.189-13.487-5.51 8.584 9.819 28.538 34.237 44.57 8.121 5.332 16.223 9.556 23.625 12.507-5.555 5.693-11.228 12.834-16.465 20.993-15.749 24.534-21.59 48.969-13.047 54.578 8.542 5.61 28.234-9.732 43.983-34.266z" fill="#fff345" data-original="#fff345"></path></g><ellipse cx="134.454" cy="290.863" fill="#fcf9f6" rx="24.5" ry="24.638" transform="matrix(.997 -.081 .081 .997 -22.993 11.776)" data-original="#fcf9f6"></ellipse></g><path d="m507.984 141.376c0-.001-.001-.001-.001-.002-25.619-39.22-122.476-3.465-172.425 15.776-4.896-8.71-9.793-17.419-14.689-26.129-44.485-81.02-159.697-91.725-217.363-19.302-2.603 3.221-2.1 7.943 1.123 10.546 3.223 2.602 7.944 2.1 10.547-1.123 57.545-69.25 161.634-51.943 199.071 28.71-18.739 23.462-131.545 99.463-187.193 109.732-8.987-7.883-19.058-14.692-29.639-20.249-11.116-27.979-11.25-58.734-.319-86.914 1.498-3.862-.418-8.207-4.28-9.705-3.863-1.499-8.207.418-9.705 4.28-10.587 27.291-11.949 56.728-4.161 84.479-9.827-3.112-26.205-6.33-33.043 4.32-14.893 23.199 32.152 53.167 47.46 61.495-39.917 31.735-109.963 94.551-89.795 130.425 16.516 29.379 65.634 21.61 92.754 15.829 70.713-16.352 137.98-53.389 193.057-99.673 62.285-20.945 125.031-58.369 172.164-102.371 7.025-6.684-3.313-17.552-10.338-10.869-36.556 34.48-86.073 65.858-133.518 86.443 18.328-19.003 35.102-39.876 50.473-62.791 32.742-48.812 80.416-85.804 128.631-100.154 2.621 14.419-7.589 30.751-15.304 41.922-5.355 7.751 6.595 16.847 12.342 8.524 11.72-16.966 25.634-42.759 14.151-63.199zm-281.561 90.887c51.698-29.355 82.457-56.274 95.451-68.844.003.004 5.462 9.72 5.468 9.724l10.298 18.317c-34.016 36.075-120.478 88.137-171.787 105.501 2.282-10.651-1.909-23.255-10.528-30.468 18.294-7.177 42.758-18.138 71.098-34.23zm-140.658 119.885c4.201-15.369 12.945-29.983 22.893-42.293 4.125 5.673 9.941 9.798 16.734 11.814-5.33 10.586-24.525 46.23-40.668 44.503-.507-1.014-1.373-5.191 1.041-14.024zm57.048-46.351c-8.095 4.596-18.598 1.592-23.147-6.5-10.32-20.192 17.498-36.081 29.577-16.869 4.632 8.242 1.748 18.725-6.43 23.369zm-77.504-49.459c-5.754-7.005-6.79-11.153-6.721-12.399 2.525-1.416 13.238-.567 29.052 7.227 8.624 5.248 17.207 9.709 25.146 16.043-5.271 4.87-8.664 11.309-9.849 18.179-13.924-7.204-27.627-16.875-37.628-29.05zm352.536-77.255c-23.64 18.37-45.127 41.485-62.138 66.844-21.771 32.456-46.726 60.352-74.496 85.16-49.912 43.019-121.78 83.339-188.82 97.928-18.613 3.921-63.631 12.897-75.744-8.65-9.777-24.775 37.867-69.745 62.156-91.451-10.172 20.714-14.289 42.013-2.35 49.851 25.487 15.024 57.476-38.921 65.293-56.607 5.735-1.352 7.31-3.682 11.733-5.081 20.839-6.588 54.468-19.432 96.335-43.206 69.75-39.605 101.386-74.775 102.698-76.253 2.124-2.392 2.498-5.867.931-8.656l-10.474-18.632c75.028-30.043 122.934-35.831 142.793-28.469-23.387 7.844-46.175 20.326-67.917 37.222z" fill="#000000" data-original="#000000"></path></g></g></svg>